<svg width="98" height="124" viewBox="0 0 98 124" fill="none" xmlns="http://www.w3.org/2000/svg">
<path d="M74.2504 14.195C74.6378 14.481 74.6378 14.481 75.0331 14.7729C76.286 15.7136 76.286 15.7136 76.7072 16.1058C76.7072 16.286 76.7072 16.4662 76.7072 16.6518C76.9484 16.7547 76.9484 16.7547 77.1945 16.8597C77.8746 17.2399 78.2422 17.6402 78.7375 18.2385C79.2588 18.8638 79.7763 19.4454 80.3637 20.0107C81.1879 20.8634 81.8436 21.7637 82.508 22.7427C82.638 22.934 82.7679 23.1253 82.9018 23.3223C86.3476 28.4658 88.5544 33.7866 89.8103 39.8551C89.8617 40.0991 89.9131 40.343 89.9661 40.5944C90.3677 42.7058 90.4405 44.7868 90.4274 46.9302C90.4245 47.498 90.4274 48.0654 90.4309 48.6332C90.4334 50.8569 90.2538 52.963 89.8103 55.142C89.7678 55.3751 89.7253 55.6082 89.6815 55.8484C88.5388 62.0253 86.0974 67.7273 82.9858 73.1588C82.8274 73.4352 82.669 73.7117 82.5058 73.9966C80.1305 78.1154 77.6211 82.1322 74.9916 86.0942C74.3279 87.1057 73.6828 88.1287 73.0389 89.1528C72.5402 89.922 72.0007 90.6482 71.4427 91.3749C70.8393 92.1735 70.2585 92.9876 69.678 93.8029C69.5612 93.9668 69.4444 94.1307 69.3242 94.2996C69.0839 94.637 68.8437 94.9745 68.6036 95.312C68.2556 95.801 67.907 96.2896 67.5581 96.778C67.3899 97.0135 67.3899 97.0135 67.2182 97.2538C66.9936 97.568 66.7688 97.882 66.5438 98.1959C65.9421 99.036 65.3457 99.8793 64.7558 100.728C64.6316 100.905 64.5074 101.082 64.3794 101.265C64.1397 101.607 63.9015 101.951 63.6649 102.295C63.3852 102.693 63.0868 103.078 62.7852 103.46C62.605 103.46 62.4249 103.46 62.2393 103.46C62.1801 103.645 62.121 103.831 62.0601 104.023C61.5829 105.066 60.9208 105.856 60.1919 106.735C59.8938 107.101 59.5959 107.467 59.2983 107.834C59.1496 108.016 59.0008 108.199 58.8475 108.387C58.2251 109.157 57.6201 109.941 57.0185 110.728C56.9084 110.871 56.7983 111.015 56.6848 111.163C56.2374 111.748 55.7909 112.333 55.3445 112.918C54.1235 114.518 52.8964 116.113 51.6442 117.689C51.3629 118.044 51.3629 118.044 51.0758 118.407C50.0037 119.549 49.1085 119.923 47.542 120C45.932 119.558 44.8466 117.974 43.8813 116.699C43.7527 116.532 43.6241 116.366 43.4916 116.194C43.0967 115.681 42.7042 115.166 42.3117 114.652C42.077 114.347 41.842 114.042 41.6068 113.738C40.6726 112.527 39.7403 111.316 38.8237 110.092C38.6993 109.927 38.575 109.762 38.4468 109.593C38.207 109.275 37.9686 108.956 37.7317 108.635C37.4513 108.265 37.1532 107.908 36.8521 107.554C36.6719 107.554 36.4917 107.554 36.3061 107.554C36.2785 107.399 36.2509 107.243 36.2225 107.083C35.9964 106.342 35.6584 105.882 35.1875 105.267C35.0146 105.039 34.8417 104.811 34.6636 104.577C34.4793 104.338 34.2951 104.098 34.1052 103.852C33.7311 103.361 33.3571 102.87 32.9834 102.379C32.8031 102.143 32.6227 101.907 32.4369 101.663C31.6459 100.615 30.8908 99.5432 30.1416 98.4649C30.0139 98.3115 29.8862 98.1581 29.7546 98C29.5744 98 29.3942 98 29.2086 98C29.1805 97.8448 29.1523 97.6896 29.1233 97.5297C28.9011 96.7938 28.5693 96.318 28.1167 95.6967C27.9439 95.456 27.7711 95.2153 27.5931 94.9673C27.4056 94.7069 27.218 94.4465 27.0248 94.1782C24.7065 90.8701 22.4361 87.5292 20.3026 84.0982C19.9362 83.5048 19.9362 83.5048 19.3813 82.986C19.1794 82.644 18.9874 82.2961 18.8012 81.9453C18.1951 80.834 17.553 79.7479 16.8904 78.6695C16.7095 78.375 16.5286 78.0805 16.3423 77.777C15.8652 77.0067 15.8652 77.0067 15.4039 76.4217C14.9349 75.781 14.6083 75.1192 14.2629 74.4042C13.4949 72.8353 12.6715 71.3061 11.8253 69.7785C11.4649 69.064 11.4649 69.064 11.4649 68.5181C11.2847 68.428 11.1045 68.3379 10.9189 68.2451C6.10632 59.2656 5.27616 48.3376 7.09719 38.4902C7.14021 38.24 7.18322 37.9898 7.22755 37.7321C7.2725 37.484 7.31745 37.2359 7.36377 36.9803C7.40411 36.7535 7.44444 36.5267 7.486 36.2931C7.56379 36.0294 7.56379 36.0294 7.64315 35.7604C7.9134 35.6253 7.9134 35.6253 8.18911 35.4874C8.25104 35.1665 8.31297 34.8456 8.37678 34.5149C8.79495 32.4472 9.75996 30.5643 10.6459 28.6629C10.7884 28.355 10.931 28.0471 11.0778 27.7299C11.7668 26.2955 12.4923 24.9964 13.4888 23.7546C13.9347 23.202 13.9347 23.202 14.3376 22.5753C15.5915 20.7058 17.0784 19.1477 18.6647 17.556C18.8858 17.3335 19.1069 17.111 19.3347 16.8817C20.9489 15.2869 20.9489 15.2869 21.5652 15.2869C21.5652 15.1067 21.5652 14.9266 21.5652 14.7409C22.2545 14.219 22.9748 13.7562 23.6978 13.2822C23.8949 13.133 24.0919 12.9838 24.295 12.8301C24.295 12.6499 24.295 12.4697 24.295 12.2841C24.5314 12.2503 24.5314 12.2503 24.7727 12.2159C25.432 12.0486 25.432 12.0486 25.9158 11.4652C26.4788 10.9192 26.4788 10.9192 27.0909 10.8008C28.0049 10.6131 28.7079 10.2436 29.5328 9.81021C31.063 9.00833 31.063 9.00833 31.6654 9.00833C31.7555 8.82817 31.8456 8.648 31.9384 8.46237C32.4375 8.2683 32.4375 8.2683 33.0986 8.08702C34.1935 7.77951 35.2753 7.44788 36.3573 7.09747C49.3788 3.08495 63.5142 6.04191 74.2504 14.195Z" fill="#00A74D"/>
<path d="M67.7384 24.8533C73.6011 29.747 78.0215 36.9082 78.7923 44.611C79.0941 48.6288 79.1393 52.5997 78.0725 56.507C77.986 56.8494 77.8994 57.1917 77.8102 57.5445C76.6974 61.667 74.6663 65.6242 71.794 68.7911C71.6071 69.0131 71.4203 69.2352 71.2278 69.4639C66.7882 74.6368 60.9061 77.834 54.3232 79.4373C53.9485 79.5302 53.9485 79.5302 53.5661 79.625C45.5669 81.2753 37.3559 79.0648 30.5739 74.7967C29.6086 74.1214 28.7232 73.3958 27.8441 72.6128C27.5153 72.342 27.5153 72.342 27.1798 72.0658C21.1917 66.9931 17.6882 59.4795 16.9769 51.7423C16.3103 42.8304 18.9346 34.8421 24.7312 28.0593C35.7917 15.5723 54.9373 14.4781 67.7384 24.8533Z" fill="#FEFEFE"/>
<path d="M65.3625 26.6885C65.4321 26.7468 65.4321 26.7468 65.5031 26.8063C66.3064 27.5002 66.7773 28.39 67.0648 29.4029C67.0734 29.4331 67.082 29.4633 67.0909 29.4944C67.3128 30.321 67.2826 31.2813 67.0545 32.0999C67.012 32.2847 67.0254 32.3693 67.1172 32.5328C67.1502 32.5824 67.1502 32.5824 67.1837 32.6329C67.2086 32.6708 67.2336 32.7086 67.2593 32.7476C67.2865 32.7883 67.3137 32.8291 67.3417 32.871C67.37 32.9138 67.3982 32.9565 67.4273 33.0005C67.518 33.1376 67.6091 33.2744 67.7002 33.4113C67.7597 33.5009 67.8191 33.5906 67.8784 33.6803C68.0516 33.9417 68.2252 34.2027 68.399 34.4637C68.4234 34.5003 68.4478 34.537 68.473 34.5748C68.6086 34.7784 68.7444 34.982 68.8802 35.1855C69.0103 35.3807 69.1405 35.5759 69.2706 35.7711C69.3254 35.8533 69.3802 35.9355 69.435 36.0177C69.546 36.1841 69.6569 36.3506 69.7678 36.517C69.7951 36.5578 69.8223 36.5987 69.8504 36.6408C69.9043 36.7217 69.9583 36.8026 70.0122 36.8835C70.132 37.0632 70.2518 37.2429 70.3717 37.4224C70.5758 37.728 70.779 38.0339 70.9782 38.3426C71.0107 38.3927 71.0107 38.3927 71.0439 38.4439C71.1995 38.6846 71.1995 38.6846 71.2514 38.7883C71.3141 38.7859 71.3141 38.7859 71.3781 38.7834C72.4017 38.7614 73.3441 39.0811 74.0933 39.7921C74.1587 39.8557 74.2233 39.9201 74.2878 39.9845C74.322 40.0176 74.3561 40.0506 74.3913 40.0847C75.0496 40.7661 75.2613 41.6752 75.2655 42.5953C75.2664 42.6467 75.2674 42.6981 75.2683 42.751C75.2706 43.2318 75.1613 43.6451 74.9664 44.0819C74.9524 44.1134 74.9385 44.1448 74.9241 44.1772C74.8019 44.4438 74.6571 44.6792 74.4718 44.9072C74.4412 44.9453 74.4105 44.9834 74.3789 45.0227C73.9614 45.514 73.4502 45.8512 72.8616 46.1033C72.8313 46.1033 72.8009 46.1033 72.7696 46.1033C72.7696 47.5456 72.7696 48.988 72.7696 50.474C72.9062 50.4892 73.0429 50.5043 73.1837 50.52C73.4621 50.6826 73.6402 50.9054 73.7357 51.2101C73.7509 51.2556 73.7661 51.3012 73.7817 51.3481C73.8117 51.6413 73.7463 51.8792 73.5977 52.1302C73.3389 52.4353 73.1593 52.5502 72.7696 52.5903C72.7692 52.9251 72.7703 53.2598 72.7733 53.5946C72.7746 53.7501 72.7755 53.9055 72.7751 54.061C72.775 54.2402 72.7766 54.4194 72.7786 54.5986C72.7782 54.6538 72.7778 54.709 72.7773 54.7659C72.7847 55.1933 72.9024 55.4422 73.2067 55.7389C73.4452 55.8879 73.6861 55.9434 73.9658 55.9028C74.3195 55.7986 74.4948 55.6352 74.6823 55.3216C74.7766 55.099 74.783 54.8829 74.7978 54.6437C74.8214 54.3595 74.9024 54.1848 75.1075 53.9784C75.1473 53.946 75.1473 53.946 75.1878 53.913C75.2145 53.8909 75.2411 53.8688 75.2685 53.8461C75.4882 53.6769 75.6295 53.6723 75.8981 53.6944C76.1761 53.7599 76.3836 53.8823 76.5565 54.1114C76.7819 54.5038 76.7271 55.1119 76.6342 55.5433C76.3917 56.346 75.9318 56.9869 75.208 57.421C75.1795 57.4387 75.151 57.4564 75.1217 57.4747C74.4489 57.8531 73.6026 57.8931 72.8645 57.7171C72.3166 57.5472 71.8834 57.275 71.4814 56.8689C71.4493 56.8383 71.4172 56.8078 71.3842 56.7763C71.1831 56.5713 71.045 56.3491 70.915 56.0954C70.9 56.0665 70.885 56.0377 70.8696 56.008C70.6413 55.5385 70.5869 55.0655 70.5938 54.5492C70.594 54.4927 70.5942 54.4363 70.5944 54.3782C70.5952 54.2001 70.5969 54.0221 70.5987 53.844C70.5994 53.7223 70.6 53.6007 70.6006 53.4791C70.6021 53.1828 70.6044 52.8866 70.6073 52.5903C70.5488 52.5838 70.4904 52.5774 70.4301 52.5707C70.129 52.5375 69.9479 52.3631 69.7619 52.1331C69.5895 51.8081 69.5621 51.5208 69.6412 51.1641C69.767 50.8665 69.9729 50.6804 70.2392 50.5056C70.3313 50.474 70.3313 50.474 70.6073 50.474C70.6073 49.0468 70.6073 47.6197 70.6073 46.1493C70.3796 46.081 70.3796 46.081 70.1472 46.0113C70.0263 45.9511 69.9158 45.8924 69.8022 45.8216C69.758 45.7944 69.758 45.7944 69.713 45.7667C68.8945 45.2496 68.3106 44.4208 68.0769 43.481C67.9109 42.5923 67.9831 41.6688 68.4461 40.8855C68.5019 40.77 68.5019 40.77 68.4678 40.6582C68.3736 40.4918 68.2665 40.3378 68.1546 40.1829C68.1302 40.1488 68.1059 40.1147 68.0808 40.0795C67.8783 39.7964 67.6735 39.5148 67.4692 39.233C67.2858 38.9794 67.1074 38.7229 66.9309 38.4646C66.5703 37.9372 66.1986 37.4178 65.8234 36.9007C65.5996 36.5914 65.3807 36.2788 65.1633 35.9651C65.0357 35.7817 64.9072 35.6019 64.7645 35.4298C64.5726 35.49 64.3959 35.5631 64.2152 35.6512C63.1296 36.1558 62.0664 36.1952 60.8999 36.0279C60.8956 36.0762 60.8914 36.1245 60.887 36.1742C60.8514 36.4563 60.7696 36.7261 60.6929 36.9992C60.6681 37.0888 60.6433 37.1783 60.6185 37.2679C60.5924 37.3622 60.5661 37.4566 60.5398 37.5509C60.4494 37.8749 60.36 38.1993 60.2705 38.5236C60.2617 38.5554 60.2529 38.5873 60.2439 38.6201C60.1024 39.133 59.966 39.6469 59.836 40.1627C59.7199 40.6223 59.5969 41.0787 59.4614 41.533C59.3357 41.9561 59.2204 42.3819 59.1056 42.8081C59.0907 42.8635 59.0907 42.8635 59.0755 42.9199C58.9797 43.276 58.8844 43.6321 58.7892 43.9883C58.6349 44.5646 58.4759 45.1395 58.3136 45.7136C58.1937 46.138 58.0769 46.5631 57.9663 46.99C57.8975 47.2548 57.8257 47.5186 57.7542 47.7826C57.6274 48.2516 57.5041 48.7214 57.3837 49.1922C57.2827 49.5855 57.1743 49.9766 57.065 50.3676C57.0175 50.5378 56.9706 50.7081 56.9236 50.8783C56.8954 50.98 56.8673 51.0817 56.8391 51.1834C56.8205 51.2505 56.802 51.3176 56.7835 51.3848C56.6614 51.8275 56.5354 52.269 56.4065 52.7099C56.3917 52.7605 56.3769 52.8112 56.3616 52.8634C56.3255 52.9871 56.2894 53.1107 56.2532 53.2344C56.3206 53.2341 56.3206 53.2341 56.3894 53.2339C57.4834 53.2298 58.5773 53.2267 59.6713 53.2248C60.2003 53.2239 60.7294 53.2226 61.2584 53.2205C61.7195 53.2186 62.1807 53.2175 62.6418 53.2171C62.8859 53.2168 63.1301 53.2162 63.3742 53.2149C63.6041 53.2137 63.834 53.2133 64.0639 53.2136C64.1482 53.2135 64.2324 53.2131 64.3167 53.2124C64.432 53.2115 64.5473 53.2117 64.6626 53.2122C64.7123 53.2114 64.7123 53.2114 64.763 53.2106C65.0377 53.2138 65.2799 53.2968 65.4807 53.4866C65.6565 53.6896 65.6903 53.84 65.6917 54.1016C65.6921 54.1578 65.6925 54.2139 65.6929 54.2718C65.6931 54.3342 65.6933 54.3965 65.6935 54.4589C65.6938 54.5245 65.6942 54.5901 65.6946 54.6557C65.6958 54.8712 65.6965 55.0868 65.6972 55.3023C65.6974 55.3766 65.6977 55.4509 65.6979 55.5251C65.6989 55.8341 65.6998 56.1431 65.7003 56.4521C65.701 56.8945 65.7026 57.337 65.7052 57.7795C65.707 58.0907 65.7079 58.402 65.7081 58.7133C65.7083 58.8991 65.7088 59.085 65.7103 59.2708C65.7117 59.4457 65.712 59.6207 65.7114 59.7956C65.7114 59.8596 65.7118 59.9237 65.7126 59.9877C65.717 60.3552 65.7065 60.6346 65.4545 60.9175C65.2613 61.1015 65.2613 61.1015 65.0865 61.1015C65.0865 61.1319 65.0865 61.1622 65.0865 61.1935C64.297 61.1935 63.5075 61.1935 62.6942 61.1935C62.6942 61.4516 62.6942 61.7097 62.6942 61.9756C62.6715 62.1531 62.6447 62.3098 62.6021 62.4817C62.5906 62.5292 62.5906 62.5292 62.5789 62.5776C62.1888 64.1761 61.4268 65.4971 60.0098 66.3982C59.6334 66.6256 59.2418 66.7932 58.8296 66.9443C58.7913 66.959 58.753 66.9736 58.7135 66.9887C58.2281 67.1648 57.7249 67.1905 57.2136 67.1889C57.1166 67.1888 57.0197 67.1898 56.9227 67.191C55.4853 67.1978 54.2497 66.5841 53.2168 65.6101C53.1828 65.5797 53.1488 65.5492 53.1138 65.5178C52.5911 65.0294 52.2442 64.4117 51.9643 63.7607C51.9349 63.6924 51.9042 63.6247 51.8733 63.5571C51.7627 63.3043 51.6922 63.0409 51.6209 62.775C51.611 62.7382 51.6012 62.7014 51.591 62.6634C51.5817 62.6275 51.5724 62.5916 51.5629 62.5547C51.5505 62.507 51.5505 62.507 51.538 62.4584C51.4461 62.0085 51.4685 61.6203 51.4685 61.1475C47.2479 61.1475 43.0272 61.1475 38.6787 61.1475C38.6787 61.436 38.6787 61.7244 38.6787 62.0216C38.6604 62.1895 38.6416 62.3417 38.6068 62.5047C38.5987 62.5445 38.5905 62.5843 38.5821 62.6254C38.3479 63.7001 37.847 64.6564 37.1145 65.4721C37.0824 65.5083 37.0503 65.5445 37.0172 65.5818C36.4359 66.1968 35.6961 66.6527 34.9062 66.9443C34.849 66.9664 34.849 66.9664 34.7906 66.9889C34.4833 67.0958 34.1716 67.1186 33.848 67.0824C33.6989 66.9333 33.7424 66.755 33.7412 66.5519C33.7413 66.4945 33.7415 66.4371 33.7416 66.3779C33.7405 66.2925 33.7405 66.2925 33.7394 66.2055C33.7393 66.1506 33.7393 66.0957 33.7393 66.0391C33.7391 65.9889 33.739 65.9386 33.7389 65.8869C33.7583 65.7291 33.7978 65.6438 33.894 65.5181C34.0081 65.4656 34.1116 65.4259 34.2304 65.3887C34.8652 65.1684 35.3565 64.8434 35.8263 64.368C35.8569 64.3378 35.8876 64.3076 35.9192 64.2765C36.6775 63.4771 36.9535 62.3205 36.9371 61.2516C36.9084 60.198 36.4612 59.0649 35.7147 58.3152C35.6756 58.2782 35.6365 58.2412 35.5963 58.2031C35.5662 58.1727 35.5361 58.1424 35.5051 58.1111C34.8162 57.4529 33.8496 57.1838 32.9221 57.1794C32.8486 57.178 32.8486 57.178 32.7737 57.1766C31.9109 57.1724 31.2372 57.5291 30.5815 58.0651C30.5452 58.0938 30.5088 58.1226 30.4714 58.1522C29.7451 58.7564 29.3152 59.6252 29.0173 60.5034C29.0027 60.5453 28.9881 60.5872 28.9731 60.6303C28.9042 60.8315 28.844 61.0346 28.7873 61.2395C28.5899 61.2243 28.3925 61.2092 28.1892 61.1935C28.1892 61.1632 28.1892 61.1328 28.1892 61.1015C28.1288 61.1017 28.0684 61.1019 28.0062 61.1021C27.4369 61.104 26.8676 61.1054 26.2983 61.1063C26.0057 61.1068 25.713 61.1074 25.4203 61.1084C25.1378 61.1094 24.8553 61.11 24.5729 61.1102C24.4651 61.1104 24.3574 61.1107 24.2497 61.1112C24.0987 61.1119 23.9477 61.112 23.7967 61.1119C23.7523 61.1123 23.7078 61.1126 23.662 61.1129C23.3568 61.112 23.0624 61.0981 22.8208 60.8887C22.7959 60.8682 22.7711 60.8477 22.7455 60.8265C22.4251 60.4397 22.4584 60.0328 22.4613 59.5575C22.4611 59.4751 22.4609 59.3928 22.4605 59.3105C22.4599 59.0875 22.4604 58.8645 22.4612 58.6414C22.4618 58.4073 22.4615 58.1732 22.4613 57.9391C22.4612 57.5457 22.4618 57.1522 22.4629 56.7588C22.4641 56.3054 22.4642 55.852 22.4637 55.3986C22.4632 54.9611 22.4635 54.5236 22.4641 54.0861C22.4644 53.9006 22.4644 53.7151 22.4641 53.5296C22.4639 53.3105 22.4644 53.0913 22.4654 52.8722C22.4656 52.7923 22.4657 52.7124 22.4654 52.6325C22.4623 51.4033 22.8029 50.4006 23.6805 49.5078C23.7121 49.4757 23.7436 49.4435 23.7761 49.4104C24.5001 48.7213 25.4004 48.5155 26.369 48.4468C26.4265 48.4427 26.484 48.4386 26.5432 48.4343C26.9395 48.4073 27.3321 48.3915 27.7291 48.4037C27.7335 48.3732 27.738 48.3427 27.7425 48.3113C27.7842 48.1352 27.8549 47.976 27.9284 47.8113C27.9442 47.7754 27.96 47.7395 27.9763 47.7025C28.0288 47.5834 28.0817 47.4645 28.1346 47.3455C28.1717 47.2615 28.2088 47.1774 28.2459 47.0933C28.3647 46.8245 28.4839 46.5559 28.6032 46.2874C28.623 46.2428 28.6428 46.1983 28.6632 46.1524C28.8403 45.7541 29.0174 45.3558 29.1949 44.9576C29.4062 44.4831 29.6148 44.0076 29.8197 43.5302C30.368 42.2541 30.9392 41.1542 32.2838 40.5825C32.8079 40.399 33.2955 40.372 33.846 40.3747C33.9314 40.3745 34.0167 40.3741 34.102 40.3737C34.3315 40.3729 34.561 40.3732 34.7906 40.3738C35.0316 40.3743 35.2726 40.3738 35.5136 40.3735C35.9176 40.3732 36.3217 40.3736 36.7258 40.3745C37.1927 40.3755 37.6595 40.3752 38.1264 40.3742C38.5283 40.3734 38.9301 40.3732 39.3319 40.3737C39.5715 40.374 39.8111 40.374 40.0507 40.3734C40.2756 40.3729 40.5005 40.3733 40.7253 40.3743C40.8078 40.3746 40.8903 40.3745 40.9727 40.3741C41.0853 40.3736 41.1979 40.3742 41.3105 40.3751C41.343 40.3747 41.3756 40.3743 41.4091 40.3739C41.6403 40.3776 41.7731 40.4288 41.9452 40.5825C42.1493 40.8546 42.1551 41.132 42.1513 41.4612C42.1515 41.5117 42.1516 41.5621 42.1518 41.6142C42.1521 41.7828 42.1511 41.9514 42.1501 42.12C42.15 42.2411 42.1501 42.3621 42.1502 42.4832C42.1503 42.7436 42.1497 43.004 42.1486 43.2644C42.1472 43.6409 42.1467 44.0174 42.1464 44.3939C42.146 45.0048 42.1448 45.6157 42.1431 46.2266C42.1414 46.8198 42.1401 47.4131 42.1393 48.0064C42.1393 48.043 42.1392 48.0796 42.1392 48.1173C42.1389 48.3009 42.1387 48.4845 42.1385 48.6681C42.1365 50.1902 42.1332 51.7123 42.1292 53.2344C43.2982 53.2344 44.4672 53.2344 45.6717 53.2344C45.7021 53.1433 45.7324 53.0522 45.7637 52.9583C45.7995 52.8867 45.8376 52.8161 45.8777 52.7468C45.9005 52.7068 45.9234 52.6669 45.947 52.6257C45.9719 52.5827 45.9968 52.5397 46.0225 52.4954C46.0768 52.4005 46.1311 52.3055 46.1853 52.2105C46.214 52.1602 46.2428 52.1099 46.2723 52.0581C46.4273 51.7845 46.5785 51.5087 46.7299 51.2331C46.9514 50.8299 47.1751 50.4281 47.4027 50.0283C47.6448 49.6026 47.8781 49.1726 48.1094 48.741C48.2946 48.3955 48.483 48.0519 48.6742 47.7096C48.8192 47.4498 48.9627 47.1891 49.1063 46.9285C49.3638 46.4613 49.622 45.9945 49.8813 45.5283C50.3761 44.6384 50.8693 43.7477 51.353 42.8518C51.515 42.5519 51.6795 42.2535 51.8458 41.956C52.0035 41.6731 52.1574 41.3881 52.311 41.103C52.5082 40.7373 52.7093 40.3742 52.9149 40.0132C53.1283 39.6384 53.3354 39.2606 53.5388 38.8803C53.767 38.4537 54.0009 38.031 54.2403 37.6106C54.4321 37.2732 54.6185 36.933 54.8034 36.5917C54.966 36.2925 55.1329 35.996 55.3015 35.7001C55.5293 35.2999 55.7492 34.8959 55.9657 34.4895C56.2419 33.9711 56.5229 33.4563 56.8184 32.9487C56.8355 32.9191 56.8526 32.8896 56.8703 32.8592C56.9169 32.7788 56.9639 32.6986 57.0109 32.6184C57.1384 32.3778 57.128 32.2604 57.0641 31.9937C56.7528 30.6858 56.9643 29.2545 57.6597 28.1038C57.8314 27.8318 58.0268 27.5804 58.2315 27.3326C58.2605 27.2972 58.2894 27.2617 58.3192 27.2252C59.0676 26.3373 60.2317 25.6731 61.3945 25.5461C62.8414 25.4382 64.2335 25.7425 65.3625 26.6885Z" fill="#00A74D"/>
<path d="M56.9333 57.1359C57.9257 57.1015 58.9242 57.4508 59.6664 58.1196C60.1304 58.5557 60.4266 59.0479 60.6699 59.6292C60.6884 59.6707 60.7068 59.7121 60.7258 59.7548C61.1768 60.8525 61.0537 62.0943 60.6297 63.1746C60.1713 64.2446 59.3933 64.9029 58.3236 65.334C58.141 65.3938 57.9605 65.4381 57.7715 65.472C57.7203 65.4825 57.669 65.4929 57.6162 65.5037C56.4613 65.6032 55.4671 65.3113 54.5712 64.5692C53.8289 63.8793 53.2051 62.8554 53.1649 61.8225C53.1648 61.7683 53.1648 61.7141 53.1647 61.6584C53.1647 61.5993 53.1646 61.5402 53.1646 61.4793C53.1646 61.4489 53.1647 61.4185 53.1648 61.3872C53.1651 61.2935 53.1648 61.1999 53.1646 61.1062C53.1646 61.0474 53.1647 60.9886 53.1647 60.928C53.1648 60.8741 53.1648 60.8202 53.1649 60.7647C53.1708 60.6414 53.1708 60.6414 53.2168 60.5953C53.2296 60.5217 53.2408 60.4479 53.2514 60.3739C53.3711 59.6976 53.7472 59.0914 54.183 58.5711C54.2097 58.5376 54.2365 58.5042 54.264 58.4697C54.821 57.8018 55.6649 57.2845 56.5322 57.1592C56.6658 57.1484 56.7995 57.1428 56.9333 57.1359Z" fill="#FAFAFA"/>
<path d="M37.5285 42.6987C38.3179 42.6987 39.1074 42.6987 39.9208 42.6987C39.9208 48.1036 39.9208 53.5084 39.9208 59.0771C39.268 59.0771 38.6151 59.0771 37.9425 59.0771C37.9425 56.9364 37.9425 54.7957 37.9425 52.5902C36.6217 52.5902 35.3008 52.5902 33.9399 52.5902C33.9399 52.0284 33.9399 51.4667 33.9399 50.8879C35.1242 50.8879 36.3084 50.8879 37.5285 50.8879C37.5285 48.1855 37.5285 45.4831 37.5285 42.6987Z" fill="#FAFAFA"/>
<path d="M63.3383 28.2987C63.3816 28.3202 63.4249 28.3418 63.4695 28.3639C64.1644 28.748 64.5839 29.3403 64.8105 30.093C64.9701 30.9755 64.8176 31.8306 64.3028 32.5746C63.8637 33.1438 63.2245 33.5259 62.5102 33.6355C62.3565 33.6472 62.2041 33.6484 62.0501 33.647C61.9923 33.6475 61.9923 33.6475 61.9333 33.648C61.2115 33.6458 60.6406 33.3409 60.1155 32.8587C59.5562 32.2876 59.3119 31.5047 59.3195 30.7208C59.3409 30.0212 59.6117 29.4206 60.0718 28.8968C60.0992 28.8651 60.1265 28.8334 60.1547 28.8008C60.9765 27.9127 62.2868 27.7754 63.3383 28.2987Z" fill="#FAFAFA"/>
<path d="M35.6884 42.4687C35.6884 44.1995 35.6884 45.9302 35.6884 47.7134C33.9121 47.7134 32.1358 47.7134 30.3057 47.7134C30.342 47.4955 30.3741 47.3666 30.4627 47.1736C30.4977 47.0967 30.4977 47.0967 30.5333 47.0183C30.5458 46.9911 30.5584 46.9639 30.5713 46.9359C30.6254 46.8185 30.6787 46.7008 30.7321 46.5831C30.7605 46.5204 30.789 46.4577 30.8176 46.395C30.9665 46.0675 31.1118 45.7384 31.2568 45.4091C31.3005 45.3097 31.3444 45.2104 31.3883 45.1111C31.5225 44.8071 31.6558 44.5028 31.7863 44.1972C31.8089 44.1448 31.8314 44.0925 31.8546 44.0385C31.8958 43.9427 31.9365 43.8467 31.9768 43.7505C32.1322 43.3901 32.3263 43.0888 32.6204 42.8252C32.6515 42.7965 32.6826 42.7678 32.7147 42.7383C33.6014 42.113 34.5506 42.4687 35.6884 42.4687Z" fill="#FAFAFA"/>
<path d="M33.9766 59.0386C34.6488 59.4239 35.0956 59.9969 35.3202 60.7333C35.4793 61.3802 35.3554 62.092 35.0589 62.681C34.9829 62.8043 34.9026 62.9191 34.8141 63.0336C34.7924 63.0636 34.7707 63.0935 34.7483 63.1244C34.407 63.5631 33.8428 63.8705 33.2959 63.9537C32.5393 64.0078 31.8884 63.8373 31.3061 63.347C30.7588 62.8292 30.464 62.129 30.437 61.3828C30.4443 60.703 30.7544 60.0239 31.2184 59.5367C31.9742 58.8385 33.0273 58.5932 33.9766 59.0386Z" fill="#00A74D"/>
<path d="M58.451 59.2679C58.5663 59.3692 58.6757 59.4738 58.7836 59.5831C58.8095 59.608 58.8355 59.6329 58.8622 59.6586C59.3237 60.1408 59.4974 60.7893 59.4849 61.4383C59.4362 62.1771 59.1583 62.8569 58.5996 63.3556C58.0437 63.7824 57.3997 63.9334 56.7133 63.8617C56.0502 63.7547 55.5178 63.3994 55.1146 62.8668C54.7129 62.2586 54.5565 61.5607 54.6696 60.8398C54.828 60.1479 55.2153 59.5808 55.8047 59.1834C56.6451 58.6697 57.6565 58.6516 58.451 59.2679Z" fill="#00A74D"/>
<path d="M52.9409 46.1033C53.2167 46.1893 53.4772 46.2909 53.7376 46.4158C53.7717 46.4319 53.8058 46.4481 53.841 46.4647C53.9484 46.5156 54.0557 46.5668 54.163 46.618C54.2364 46.6528 54.3099 46.6877 54.3834 46.7225C54.5621 46.8072 54.7407 46.8922 54.9192 46.9774C54.9034 47.012 54.8876 47.0467 54.8714 47.0823C54.8507 47.1278 54.83 47.1733 54.8087 47.2202C54.7881 47.2653 54.7676 47.3103 54.7465 47.3568C54.6624 47.5426 54.5809 47.7292 54.5067 47.9193C54.427 48.1235 54.3451 48.309 54.2291 48.4956C54.1949 48.5729 54.1609 48.6502 54.1284 48.7282C54.0877 48.8258 54.045 48.9224 54.0019 49.0189C53.9882 49.0497 53.9745 49.0804 53.9604 49.112C53.9428 49.1515 53.9252 49.191 53.907 49.2317C53.8947 49.2599 53.8823 49.288 53.8695 49.317C53.7584 49.5688 53.6431 49.8185 53.5268 50.068C53.2876 50.5817 53.0574 51.097 52.8489 51.6241C52.5205 51.5176 52.2205 51.3867 51.9235 51.2102C51.7818 51.1347 51.6317 51.0809 51.482 51.0233C51.3622 50.974 51.257 50.9094 51.1466 50.842C51.0553 50.8092 50.9634 50.778 50.8706 50.7499C50.9001 50.5613 50.9615 50.4063 51.0413 50.2333C51.0542 50.2051 51.0671 50.177 51.0803 50.1481C51.1085 50.0867 51.1367 50.0254 51.1651 49.9641C51.2108 49.8653 51.2562 49.7663 51.3016 49.6673C51.3505 49.5605 51.3995 49.4536 51.4486 49.3468C51.6356 48.9395 51.8202 48.5311 52.0048 48.1227C52.0593 48.0019 52.1139 47.8812 52.1686 47.7605C52.2035 47.6832 52.2385 47.6059 52.2734 47.5286C52.2904 47.4912 52.3073 47.4538 52.3247 47.4152C52.4161 47.2132 52.5071 47.0109 52.5975 46.8084C52.6166 46.7658 52.6356 46.7233 52.6552 46.6795C52.6919 46.5974 52.7285 46.5153 52.765 46.4332C52.7814 46.3966 52.7977 46.3601 52.8146 46.3224C52.829 46.29 52.8435 46.2576 52.8583 46.2242C52.8949 46.1493 52.8949 46.1493 52.9409 46.1033Z" fill="#FAFAFA"/>
<path d="M72.315 41.3215C72.408 41.3857 72.408 41.3857 72.4933 41.4567C72.5229 41.4806 72.5525 41.5045 72.583 41.5291C72.8345 41.7553 72.9824 42.0448 73.0454 42.3768C73.0485 42.4726 73.0493 42.5685 73.0483 42.6644C73.0479 42.7139 73.0474 42.7635 73.047 42.8146C73.0465 42.8523 73.0459 42.89 73.0454 42.9289C73.015 42.9289 72.9847 42.9289 72.9534 42.9289C72.9515 42.9659 72.9496 43.0029 72.9476 43.041C72.8641 43.3812 72.6417 43.6543 72.3553 43.849C71.9931 44.04 71.5547 44.0608 71.1616 43.9482C70.7946 43.7821 70.5107 43.4794 70.3617 43.1041C70.2674 42.7076 70.2613 42.2759 70.4489 41.9081C70.5817 41.7029 70.7263 41.5466 70.9291 41.4107C70.9538 41.3918 70.9784 41.3728 71.0039 41.3534C71.3482 41.1312 71.9528 41.1333 72.315 41.3215Z" fill="#F9F9FA"/>
<path d="M62.7056 29.9797C62.9175 30.1563 63.0899 30.362 63.1254 30.6413C63.1325 30.992 63.099 31.2396 62.8783 31.5192C62.7661 31.6284 62.7661 31.6284 62.6482 31.7032C62.6093 31.7298 62.5704 31.7563 62.5303 31.7837C62.2376 31.8902 61.907 31.8979 61.6188 31.7693C61.3578 31.616 61.1768 31.3924 61.084 31.1051C61.0444 30.7793 61.0404 30.4874 61.2427 30.2179C61.6499 29.7676 62.1771 29.6103 62.7056 29.9797Z" fill="#00A74D"/>
<path d="M70.4695 46.1033C70.515 46.1185 70.5605 46.1336 70.6075 46.1493C70.6075 47.5764 70.6075 49.0035 70.6075 50.4739C70.5316 50.4587 70.4557 50.4435 70.3774 50.4279C70.3926 50.3823 70.4078 50.3368 70.4234 50.2899C70.429 50.1562 70.432 50.0236 70.4329 49.8899C70.4333 49.849 70.4338 49.8082 70.4343 49.7661C70.4357 49.6309 70.4369 49.4957 70.438 49.3606C70.439 49.2669 70.4399 49.1732 70.4409 49.0796C70.4434 48.8329 70.4457 48.5863 70.4479 48.3396C70.4502 48.088 70.4528 47.8364 70.4553 47.5847C70.4603 47.0909 70.465 46.5971 70.4695 46.1033Z" fill="#DDDDDD"/>
<path d="M37.6206 42.7908C38.3645 42.7908 39.1085 42.7908 39.8749 42.7908C39.8749 42.806 39.8749 42.8211 39.8749 42.8368C39.8485 42.8373 39.8221 42.8377 39.7949 42.8382C39.521 42.8432 39.2471 42.8484 38.9733 42.8539C38.8709 42.8559 38.7686 42.8578 38.6663 42.8597C38.5195 42.8623 38.3728 42.8652 38.2261 42.8682C38.157 42.8694 38.157 42.8694 38.0865 42.8706C38.0441 42.8715 38.0018 42.8724 37.9581 42.8733C37.9206 42.8741 37.8831 42.8748 37.8445 42.8755C37.758 42.8735 37.758 42.8735 37.7126 42.9288C37.7076 43.0307 37.7059 43.1327 37.7053 43.2347C37.705 43.2833 37.705 43.2833 37.7047 43.3328C37.7039 43.442 37.7036 43.5512 37.7032 43.6604C37.7027 43.7384 37.7023 43.8164 37.7018 43.8943C37.7005 44.1067 37.6996 44.319 37.6987 44.5313C37.6977 44.753 37.6964 44.9747 37.6952 45.1963C37.6929 45.6164 37.6908 46.0364 37.6888 46.4565C37.6865 46.9346 37.684 47.4126 37.6815 47.8907C37.6762 48.8745 37.6713 49.8582 37.6666 50.8419C37.6514 50.8419 37.6362 50.8419 37.6206 50.8419C37.6206 48.185 37.6206 45.5282 37.6206 42.7908Z" fill="#F0F0F1"/>
<path d="M62.7861 61.2854C63.4997 61.2854 64.2133 61.2854 64.9484 61.2854C64.9484 61.3006 64.9484 61.3158 64.9484 61.3314C64.9232 61.3319 64.8979 61.3324 64.8719 61.3328C64.61 61.3378 64.348 61.3431 64.0861 61.3485C63.9882 61.3505 63.8904 61.3525 63.7925 61.3543C63.6521 61.3569 63.5118 61.3599 63.3715 61.3629C63.3274 61.3636 63.2834 61.3644 63.238 61.3652C63.1975 61.3661 63.157 61.367 63.1152 61.368C63.0793 61.3687 63.0435 61.3694 63.0065 61.3701C62.9231 61.3686 62.9231 61.3686 62.8781 61.4234C62.8675 61.4854 62.8592 61.5478 62.8523 61.6103C62.8456 61.6701 62.839 61.7299 62.8321 61.7915C62.817 61.7915 62.8018 61.7915 62.7861 61.7915C62.7861 61.6245 62.7861 61.4575 62.7861 61.2854Z" fill="#F1F1F1"/>
<path d="M24.0945 49.1396C24.1249 49.1548 24.1552 49.17 24.1865 49.1857C24.0836 49.2926 23.9799 49.3988 23.876 49.5048C23.8322 49.5503 23.8322 49.5503 23.7876 49.5967C23.7449 49.6401 23.7449 49.6401 23.7013 49.6844C23.6623 49.7245 23.6623 49.7245 23.6224 49.7654C23.5344 49.8362 23.4688 49.857 23.3584 49.8758C23.5802 49.6014 23.8288 49.3712 24.0945 49.1396Z" fill="#00A74D"/>
<path d="M67.2026 30.415C67.2634 30.4606 67.3241 30.5061 67.3867 30.5531C67.3715 30.5834 67.3563 30.6138 67.3407 30.6451C67.3302 30.7235 67.3218 30.8021 67.3148 30.8809C67.309 30.9437 67.309 30.9437 67.3031 31.0077C67.3003 31.0399 67.2975 31.072 67.2946 31.1051C67.2643 31.1051 67.2339 31.1051 67.2026 31.1051C67.2026 30.8774 67.2026 30.6497 67.2026 30.415Z" fill="#ECECED"/>
<path d="M55.563 59.3533C55.5933 59.3685 55.6237 59.3836 55.655 59.3993C55.5184 59.5663 55.3817 59.7333 55.2409 59.9054C55.2106 59.875 55.1802 59.8446 55.1489 59.8133C55.2006 59.7539 55.2524 59.6945 55.3042 59.6351C55.333 59.602 55.3618 59.5689 55.3915 59.5348C55.4468 59.4725 55.5041 59.4121 55.563 59.3533Z" fill="#00A74D"/>
<path d="M60.9 36.0278C61.0215 36.0278 61.1429 36.0278 61.2681 36.0278C61.1381 36.1626 61.0018 36.2809 60.854 36.3959C60.8692 36.2744 60.8844 36.153 60.9 36.0278Z" fill="#D7D7D8"/>
<path d="M52.0666 47.9895C52.0969 48.035 52.1273 48.0806 52.1586 48.1275C52.1148 48.2111 52.0706 48.2944 52.0263 48.3777C52.0018 48.4241 51.9772 48.4706 51.9519 48.5184C51.8825 48.6336 51.8825 48.6336 51.7905 48.6796C51.866 48.4389 51.9465 48.2125 52.0666 47.9895Z" fill="#CDCCCD"/>
<path d="M36.7002 62.8958C36.7549 62.9705 36.7549 62.9705 36.7923 63.0798C36.7319 63.2207 36.7319 63.2207 36.6542 63.3558C36.6391 63.4014 36.6239 63.4469 36.6082 63.4938C36.5627 63.509 36.5171 63.5242 36.4702 63.5398C36.5408 63.3226 36.6193 63.1093 36.7002 62.8958Z" fill="#00A74D"/>
<path d="M62.6023 62.3435C62.6478 62.3587 62.6934 62.3739 62.7403 62.3895C62.7547 62.4902 62.7547 62.4902 62.7403 62.6195C62.6253 62.7489 62.6253 62.7489 62.5103 62.8496C62.5505 62.4988 62.5505 62.4988 62.6023 62.3435Z" fill="#CECDCE"/>
<path d="M33.8938 58.9392C33.9241 58.9392 33.9545 58.9392 33.9858 58.9392C33.9858 58.9696 33.9858 58.9999 33.9858 59.0312C34.0199 59.035 34.0541 59.0388 34.0893 59.0427C34.2394 59.0837 34.2991 59.1456 34.3998 59.2613C34.2393 59.2613 34.1645 59.2197 34.0232 59.1462C33.9817 59.1249 33.9403 59.1035 33.8975 59.0815C33.8659 59.0649 33.8343 59.0483 33.8018 59.0312C33.8321 59.0009 33.8625 58.9705 33.8938 58.9392Z" fill="#E5E5E5"/>
<path d="M73.3676 52.3142C73.2357 52.475 73.1449 52.5575 72.9392 52.5816C72.8552 52.5859 72.8552 52.5859 72.7695 52.5902C72.89 52.5099 72.9553 52.4804 73.0916 52.4522C73.0764 52.4219 73.0612 52.3915 73.0456 52.3602C73.2123 52.2624 73.2123 52.2624 73.3676 52.3142Z" fill="#00A74D"/>
<path d="M54.2289 48.4036C54.2593 48.4339 54.2897 48.4643 54.321 48.4956C54.3028 48.6083 54.2652 48.709 54.2289 48.8176C54.1341 48.8723 54.1341 48.8723 54.0449 48.9096C54.0669 48.8425 54.0889 48.7754 54.1111 48.7084C54.1233 48.671 54.1356 48.6336 54.1483 48.5951C54.1829 48.4956 54.1829 48.4956 54.2289 48.4036Z" fill="#00A74D"/>
<path d="M36.2862 63.7698C36.3014 63.7698 36.3165 63.7698 36.3322 63.7698C36.3437 63.8992 36.3437 63.8992 36.3322 64.0458C36.2459 64.1321 36.2459 64.1321 36.1482 64.1838C36.1178 64.1838 36.0874 64.1838 36.0562 64.1838C36.1251 64.0407 36.2006 63.9037 36.2862 63.7698Z" fill="#00A74D"/>
<path d="M56.7593 33.0374C56.7897 33.0829 56.8201 33.1284 56.8513 33.1754C56.7754 33.312 56.6995 33.4487 56.6213 33.5894C56.5909 33.5591 56.5606 33.5287 56.5293 33.4974C56.6052 33.3456 56.6811 33.1938 56.7593 33.0374Z" fill="#00A74D"/>
<path d="M34.9522 62.7576C34.9826 62.8031 35.0129 62.8487 35.0442 62.8956C34.9531 63.0322 34.9531 63.0322 34.8602 63.1716C34.8146 63.1413 34.7691 63.1109 34.7222 63.0796C34.7981 62.9733 34.874 62.8671 34.9522 62.7576Z" fill="#D6D6D7"/>
<path d="M53.2628 59.9973C53.2932 60.0277 53.3236 60.058 53.3549 60.0893C53.3437 60.209 53.3437 60.209 53.3146 60.3481C53.3005 60.4173 53.3005 60.4173 53.2862 60.4879C53.2785 60.5234 53.2708 60.5589 53.2628 60.5954C53.2477 60.5954 53.2325 60.5954 53.2168 60.5954C53.2066 60.5303 53.1971 60.4651 53.1881 60.3999C53.1827 60.3636 53.1774 60.3273 53.1719 60.2899C53.1707 60.1665 53.2 60.1019 53.2628 59.9973Z" fill="#00A74D"/>
<path d="M57.8175 63.8159C57.7001 63.9242 57.6468 63.9531 57.4839 63.9625C57.4422 63.9597 57.4004 63.9568 57.3574 63.9539C57.5038 63.7936 57.6073 63.7507 57.8175 63.8159Z" fill="#EAEBEB"/>
<path d="M65.5924 60.6414C65.6228 60.7021 65.6532 60.7628 65.6845 60.8254C65.5478 60.9393 65.5478 60.9393 65.4084 61.0554C65.3781 61.0402 65.3477 61.0251 65.3164 61.0094C65.3748 60.9405 65.4332 60.8716 65.4916 60.8027C65.5505 60.7331 65.5505 60.7331 65.5924 60.6414Z" fill="#E1E1E2"/>
<path d="M52.9409 46.1033C52.9712 46.1033 53.0016 46.1033 53.0329 46.1033C52.9827 46.277 52.9451 46.401 52.8028 46.5173C52.7877 46.487 52.7725 46.4566 52.7568 46.4253C52.7926 46.3459 52.7926 46.3459 52.846 46.2585C52.8773 46.2073 52.9086 46.1561 52.9409 46.1033Z" fill="#C8C8C9"/>
<path d="M59.9336 32.6694C60.0399 32.7605 60.1461 32.8516 60.2556 32.9455C60.2253 32.9758 60.1949 33.0062 60.1636 33.0375C60.0486 32.9311 60.0486 32.9311 59.9336 32.8075C59.9336 32.7619 59.9336 32.7164 59.9336 32.6694Z" fill="#00A74D"/>
<path d="M35.5964 64.5979C35.6115 64.6434 35.6267 64.689 35.6424 64.7359C35.4238 64.9199 35.4238 64.9199 35.3203 64.9199C35.3769 64.7503 35.4555 64.7026 35.5964 64.5979Z" fill="#00A74D"/>
<path d="M23.4964 49.6917C23.542 49.7068 23.5875 49.722 23.6344 49.7377C23.5737 49.7832 23.513 49.8288 23.4504 49.8757C23.42 49.8605 23.3897 49.8453 23.3584 49.8297C23.4039 49.7841 23.4495 49.7386 23.4964 49.6917Z" fill="#00A74D"/>
<path d="M71.4068 41.2408C71.4315 41.2513 71.4561 41.2617 71.4816 41.2725C71.3905 41.2876 71.2994 41.3028 71.2055 41.3185C71.2055 41.364 71.2055 41.4096 71.2055 41.4565C71.1448 41.4261 71.0841 41.3958 71.0215 41.3645C71.2706 41.2229 71.2706 41.2229 71.4068 41.2408Z" fill="#C2C2C3"/>
<path d="M54.5048 37.1321C54.5352 37.1776 54.5656 37.2232 54.5968 37.2701C54.5817 37.3005 54.5665 37.3308 54.5508 37.3621C54.5205 37.3621 54.4901 37.3621 54.4588 37.3621C54.4436 37.4228 54.4285 37.4836 54.4128 37.5461C54.3824 37.5461 54.3521 37.5461 54.3208 37.5461C54.376 37.4043 54.4348 37.2672 54.5048 37.1321Z" fill="#00A74D"/>
<path d="M81.0752 21.2925C82.0888 22.2474 82.8908 23.2338 83.6344 24.4147C83.7385 24.579 83.8426 24.7433 83.9499 24.9125C86.8955 29.6443 86.8955 29.6443 86.7203 30.9556C86.6591 31.0998 86.5979 31.2441 86.5348 31.3928C86.3993 31.1155 86.2639 30.8382 86.1243 30.5525C84.11 26.4549 84.11 26.4549 81.6382 22.6233C81.0752 21.8384 81.0752 21.8384 81.0752 21.2925Z" fill="#00A74D"/>
<path d="M54.0503 6.00562C56.8697 6.11062 60.0095 6.52096 62.5127 7.91648C61.4377 8.2677 60.8283 8.00065 59.7797 7.61471C58.5016 7.23212 57.191 7.04605 55.873 6.84935C55.3534 6.76708 54.8377 6.66124 54.3233 6.55158C54.2332 6.37141 54.1431 6.19124 54.0503 6.00562Z" fill="#00A74D"/>
<path d="M88.446 36.0334C88.7163 36.1686 88.7163 36.1686 88.992 36.3064C89.7113 38.4644 89.9333 40.5973 89.8109 42.858C89.7209 42.858 89.6308 42.858 89.538 42.858C89.482 42.549 89.4261 42.24 89.3684 41.9217C89.2942 41.5172 89.2199 41.1127 89.1456 40.7082C89.1088 40.5045 89.072 40.3008 89.0341 40.0908C88.8431 38.9856 88.8431 38.9856 88.446 37.9443C88.4351 37.3075 88.4342 36.6703 88.446 36.0334Z" fill="#00A74D"/>
<path d="M50.501 118.201C50.501 118.471 50.501 118.741 50.501 119.02C49.7041 119.692 49.0297 119.901 48.01 119.941C46.9086 119.834 46.7967 119.798 46.1333 119.02C46.38 119.029 46.6266 119.039 46.8808 119.048C47.3638 119.06 47.3638 119.06 47.8565 119.071C48.1764 119.08 48.4962 119.09 48.8258 119.1C49.6801 119.098 49.6801 119.098 50.2056 118.607C50.3031 118.473 50.4006 118.339 50.501 118.201Z" fill="#00A74D"/>
<path d="M59.7827 7.09741C60.187 7.17419 60.5907 7.25447 60.9941 7.33627C61.3314 7.40278 61.3314 7.40278 61.6755 7.47063C61.8616 7.52763 62.0477 7.58464 62.2395 7.64337C62.3296 7.82354 62.4197 8.00371 62.5125 8.18933C60.3969 7.95048 60.3969 7.95048 59.7827 7.64337C59.7827 7.46321 59.7827 7.28304 59.7827 7.09741Z" fill="#00A74D"/>
<path d="M89.5379 52.6853C89.628 52.6853 89.7181 52.6853 89.8109 52.6853C90.1469 54.1636 90.1469 54.1636 89.828 54.9715C89.7322 55.1179 89.6365 55.2643 89.5379 55.4151C89.4478 55.4151 89.3577 55.4151 89.2649 55.4151C89.2308 53.6066 89.2308 53.6066 89.5379 52.6853Z" fill="#00A74D"/>
<path d="M21.5652 15.2869C21.5652 15.5571 21.5652 15.8274 21.5652 16.1058C20.9168 16.5835 20.9168 16.5835 20.2003 16.9247C20.0201 16.8347 19.8399 16.7446 19.6543 16.6518C20.951 15.2869 20.951 15.2869 21.5652 15.2869Z" fill="#00A74D"/>
</svg>
