<svg width="20" height="20" viewBox="0 0 20 20" fill="none" xmlns="http://www.w3.org/2000/svg">
<path d="M10 19.5C8.6975 19.5 7.46833 19.2503 6.3125 18.751C5.15667 18.2517 4.14867 17.5718 3.2885 16.7115C2.42817 15.8513 1.74833 14.8433 1.249 13.6875C0.749667 12.5317 0.5 11.3025 0.5 10C0.5 8.68717 0.749667 7.45292 1.249 6.29725C1.74833 5.14142 2.42817 4.13433 3.2885 3.276C4.14867 2.41767 5.15667 1.74042 6.3125 1.24425C7.46833 0.748084 8.6975 0.5 10 0.5C11.3128 0.5 12.5471 0.748084 13.7028 1.24425C14.8586 1.74042 15.8657 2.41767 16.724 3.276C17.5823 4.13433 18.2596 5.14142 18.7558 6.29725C19.2519 7.45292 19.5 8.68717 19.5 10C19.5 11.3025 19.2519 12.5317 18.7558 13.6875C18.2596 14.8433 17.5823 15.8513 16.724 16.7115C15.8657 17.5718 14.8586 18.2517 13.7028 18.751C12.5471 19.2503 11.3128 19.5 10 19.5ZM10 2C8.10517 2 6.43817 2.58142 4.999 3.74425C3.55983 4.90708 2.63258 6.37567 2.21725 8.15C2.58908 8.09233 2.98625 7.925 3.40875 7.648C3.83108 7.37117 4.28525 6.74367 4.77125 5.7655C5.00192 5.29367 5.33975 4.92308 5.78475 4.65375C6.22958 4.38458 6.718 4.25 7.25 4.25H12.75C13.282 4.25 13.7704 4.383 14.2153 4.649C14.6602 4.915 14.9981 5.28392 15.2288 5.75575C15.7211 6.75058 16.1853 7.3855 16.6213 7.6605C17.0571 7.9355 17.4443 8.09867 17.7828 8.15C17.3674 6.37567 16.4427 4.90708 15.0087 3.74425C13.5747 2.58142 11.9052 2 10 2ZM10 18C12.2333 18 14.1276 17.2183 15.6827 15.6547C17.2379 14.0912 18.0103 12.1961 18 9.96925V9.82975C18 9.78808 17.9968 9.74483 17.9905 9.7C16.9097 9.6025 16.059 9.24608 15.4385 8.63075C14.818 8.01542 14.2956 7.28333 13.8712 6.4345C13.7622 6.21283 13.6109 6.04333 13.4173 5.926C13.2238 5.80867 13.0097 5.75 12.775 5.75H7.25C6.99867 5.75 6.77625 5.80867 6.58275 5.926C6.38908 6.04333 6.23775 6.21283 6.12875 6.4345C5.70442 7.3 5.17692 8.04042 4.54625 8.65575C3.91542 9.27108 3.06983 9.6275 2.0095 9.725C2.00317 9.76983 2 9.81308 2 9.85475V9.9845C2 12.2115 2.77917 14.1042 4.3375 15.6625C5.89583 17.2208 7.78333 18 10 18ZM7 12.25C6.65 12.25 6.35417 12.1292 6.1125 11.8875C5.87083 11.6458 5.75 11.35 5.75 11C5.75 10.65 5.87083 10.3542 6.1125 10.1125C6.35417 9.87083 6.65 9.75 7 9.75C7.35 9.75 7.64583 9.87083 7.8875 10.1125C8.12917 10.3542 8.25 10.65 8.25 11C8.25 11.35 8.12917 11.6458 7.8875 11.8875C7.64583 12.1292 7.35 12.25 7 12.25ZM13 12.25C12.65 12.25 12.3542 12.1292 12.1125 11.8875C11.8708 11.6458 11.75 11.35 11.75 11C11.75 10.65 11.8708 10.3542 12.1125 10.1125C12.3542 9.87083 12.65 9.75 13 9.75C13.35 9.75 13.6458 9.87083 13.8875 10.1125C14.1292 10.3542 14.25 10.65 14.25 11C14.25 11.35 14.1292 11.6458 13.8875 11.8875C13.6458 12.1292 13.35 12.25 13 12.25Z" fill="#555555"/>
</svg>
