<svg width="98" height="124" viewBox="0 0 98 124" fill="none" xmlns="http://www.w3.org/2000/svg">
<path d="M74.2504 14.195C74.6378 14.481 74.6378 14.481 75.0331 14.7729C76.286 15.7136 76.286 15.7136 76.7072 16.1058C76.7072 16.286 76.7072 16.4662 76.7072 16.6518C76.9484 16.7547 76.9484 16.7547 77.1945 16.8597C77.8746 17.2399 78.2422 17.6402 78.7375 18.2385C79.2588 18.8638 79.7763 19.4454 80.3637 20.0107C81.1879 20.8634 81.8436 21.7637 82.508 22.7427C82.638 22.934 82.7679 23.1253 82.9018 23.3223C86.3476 28.4658 88.5544 33.7866 89.8103 39.8551C89.8617 40.0991 89.9131 40.343 89.9661 40.5944C90.3677 42.7058 90.4405 44.7868 90.4274 46.9302C90.4245 47.498 90.4274 48.0654 90.4309 48.6332C90.4334 50.8569 90.2538 52.963 89.8103 55.142C89.7678 55.3751 89.7253 55.6082 89.6815 55.8484C88.5388 62.0253 86.0974 67.7273 82.9858 73.1588C82.8274 73.4352 82.669 73.7117 82.5058 73.9966C80.1305 78.1154 77.6211 82.1322 74.9916 86.0942C74.3279 87.1057 73.6828 88.1287 73.0389 89.1528C72.5402 89.922 72.0007 90.6482 71.4427 91.3749C70.8393 92.1735 70.2585 92.9876 69.678 93.8029C69.5612 93.9668 69.4444 94.1307 69.3242 94.2996C69.0839 94.637 68.8437 94.9745 68.6036 95.312C68.2556 95.801 67.907 96.2896 67.5581 96.778C67.3899 97.0135 67.3899 97.0135 67.2182 97.2538C66.9936 97.568 66.7688 97.882 66.5438 98.1959C65.9421 99.036 65.3457 99.8793 64.7558 100.728C64.6316 100.905 64.5074 101.082 64.3794 101.265C64.1397 101.607 63.9015 101.951 63.6649 102.295C63.3852 102.693 63.0868 103.078 62.7852 103.46C62.605 103.46 62.4249 103.46 62.2393 103.46C62.1801 103.645 62.121 103.831 62.0601 104.023C61.5829 105.066 60.9208 105.856 60.1919 106.735C59.8938 107.101 59.5959 107.467 59.2983 107.834C59.1496 108.016 59.0008 108.199 58.8475 108.387C58.2251 109.157 57.6201 109.941 57.0185 110.728C56.9084 110.871 56.7983 111.015 56.6848 111.163C56.2374 111.748 55.7909 112.333 55.3445 112.918C54.1235 114.518 52.8964 116.113 51.6442 117.689C51.3629 118.044 51.3629 118.044 51.0758 118.407C50.0037 119.549 49.1085 119.923 47.542 120C45.932 119.558 44.8466 117.974 43.8813 116.699C43.7527 116.532 43.6241 116.366 43.4916 116.194C43.0967 115.681 42.7042 115.166 42.3117 114.652C42.077 114.347 41.842 114.042 41.6068 113.738C40.6726 112.527 39.7403 111.316 38.8237 110.092C38.6993 109.927 38.575 109.762 38.4468 109.593C38.207 109.275 37.9686 108.956 37.7317 108.635C37.4513 108.265 37.1532 107.908 36.8521 107.554C36.6719 107.554 36.4917 107.554 36.3061 107.554C36.2785 107.399 36.2509 107.243 36.2225 107.083C35.9964 106.342 35.6584 105.882 35.1875 105.267C35.0146 105.039 34.8417 104.811 34.6636 104.577C34.4793 104.338 34.2951 104.098 34.1052 103.852C33.7311 103.361 33.3571 102.87 32.9834 102.379C32.8031 102.143 32.6227 101.907 32.4369 101.663C31.6459 100.615 30.8908 99.5432 30.1416 98.4649C30.0139 98.3115 29.8862 98.1581 29.7546 98C29.5744 98 29.3942 98 29.2086 98C29.1805 97.8448 29.1523 97.6896 29.1233 97.5297C28.9011 96.7938 28.5693 96.318 28.1167 95.6967C27.9439 95.456 27.7711 95.2153 27.5931 94.9673C27.4056 94.7069 27.218 94.4465 27.0248 94.1782C24.7065 90.8701 22.4361 87.5292 20.3026 84.0982C19.9362 83.5048 19.9362 83.5048 19.3813 82.986C19.1794 82.644 18.9874 82.2961 18.8012 81.9453C18.1951 80.834 17.553 79.7479 16.8904 78.6695C16.7095 78.375 16.5286 78.0805 16.3423 77.777C15.8652 77.0067 15.8652 77.0067 15.4039 76.4217C14.9349 75.781 14.6083 75.1192 14.2629 74.4042C13.4949 72.8353 12.6715 71.3061 11.8253 69.7785C11.4649 69.064 11.4649 69.064 11.4649 68.5181C11.2847 68.428 11.1045 68.3379 10.9189 68.2451C6.10632 59.2656 5.27616 48.3376 7.09719 38.4902C7.14021 38.24 7.18322 37.9898 7.22755 37.7321C7.2725 37.484 7.31745 37.2359 7.36377 36.9803C7.40411 36.7535 7.44444 36.5267 7.486 36.2931C7.56379 36.0294 7.56379 36.0294 7.64315 35.7604C7.9134 35.6253 7.9134 35.6253 8.18911 35.4874C8.25104 35.1665 8.31297 34.8456 8.37678 34.5149C8.79495 32.4472 9.75996 30.5643 10.6459 28.6629C10.7884 28.355 10.931 28.0471 11.0778 27.7299C11.7668 26.2955 12.4923 24.9964 13.4888 23.7546C13.9347 23.202 13.9347 23.202 14.3376 22.5753C15.5915 20.7058 17.0784 19.1477 18.6647 17.556C18.8858 17.3335 19.1069 17.111 19.3347 16.8817C20.9489 15.2869 20.9489 15.2869 21.5652 15.2869C21.5652 15.1067 21.5652 14.9266 21.5652 14.7409C22.2545 14.219 22.9748 13.7562 23.6978 13.2822C23.8949 13.133 24.0919 12.9838 24.295 12.8301C24.295 12.6499 24.295 12.4697 24.295 12.2841C24.5314 12.2503 24.5314 12.2503 24.7727 12.2159C25.432 12.0486 25.432 12.0486 25.9158 11.4652C26.4788 10.9192 26.4788 10.9192 27.0909 10.8008C28.0049 10.6131 28.7079 10.2436 29.5328 9.81021C31.063 9.00833 31.063 9.00833 31.6654 9.00833C31.7555 8.82817 31.8456 8.648 31.9384 8.46237C32.4375 8.2683 32.4375 8.2683 33.0986 8.08702C34.1935 7.77951 35.2753 7.44788 36.3573 7.09747C49.3788 3.08495 63.5142 6.04191 74.2504 14.195Z" fill="#00A74D"/>
<path d="M67.7384 24.8533C73.6011 29.747 78.0215 36.9082 78.7923 44.611C79.0941 48.6288 79.1393 52.5997 78.0725 56.507C77.986 56.8494 77.8994 57.1917 77.8102 57.5445C76.6974 61.667 74.6663 65.6242 71.794 68.7911C71.6071 69.0131 71.4203 69.2352 71.2278 69.4639C66.7882 74.6368 60.9061 77.834 54.3232 79.4373C53.9485 79.5302 53.9485 79.5302 53.5661 79.625C45.5669 81.2753 37.3559 79.0648 30.5739 74.7967C29.6086 74.1214 28.7232 73.3958 27.8441 72.6128C27.5153 72.342 27.5153 72.342 27.1798 72.0658C21.1917 66.9931 17.6882 59.4795 16.9769 51.7423C16.3103 42.8304 18.9346 34.8421 24.7312 28.0593C35.7917 15.5723 54.9373 14.4781 67.7384 24.8533Z" fill="#FEFEFE"/>
<path d="M35.6556 31.2288C35.7398 31.2287 35.824 31.2285 35.9082 31.2283C36.1388 31.2278 36.3694 31.2276 36.5999 31.2275C36.8489 31.2273 37.0979 31.2269 37.3469 31.2264C37.9475 31.2255 38.5481 31.225 39.1486 31.2246C39.4316 31.2244 39.7145 31.2241 39.9975 31.2239C40.938 31.2231 41.8785 31.2224 42.819 31.222C43.0628 31.2219 43.3066 31.2218 43.5503 31.2217C43.6412 31.2217 43.6412 31.2217 43.7339 31.2217C44.7166 31.2213 45.6993 31.2201 46.682 31.2185C47.6911 31.2169 48.7002 31.2161 49.7094 31.2159C50.2759 31.2158 50.8424 31.2154 51.4089 31.2142C51.891 31.2131 52.3732 31.2127 52.8553 31.2132C53.1013 31.2134 53.3473 31.2133 53.5933 31.2124C53.8184 31.2116 54.0436 31.2116 54.2688 31.2123C54.3502 31.2125 54.4317 31.2123 54.5132 31.2117C55.364 31.2061 55.364 31.2061 55.6804 31.5125C55.6977 31.5396 55.715 31.5668 55.7329 31.5947C55.7511 31.6218 55.7693 31.649 55.788 31.6769C55.8827 31.8622 55.8853 32.0375 55.8849 32.2432C55.8849 32.3016 55.8849 32.3601 55.8848 32.4202C55.8846 32.4831 55.8844 32.546 55.8841 32.6107C55.884 32.6759 55.8839 32.741 55.8839 32.8062C55.8837 32.9774 55.8832 33.1485 55.8827 33.3197C55.8822 33.4945 55.882 33.6693 55.8818 33.8441C55.8812 34.1868 55.8804 34.5295 55.8794 34.8722C55.9171 34.8714 55.9549 34.8705 55.9937 34.8696C56.3546 34.8619 56.7154 34.8561 57.0763 34.8524C57.2618 34.8504 57.4471 34.8478 57.6325 34.8433C58.5475 34.8221 59.3387 34.8591 60.1856 35.255C60.2427 35.2814 60.2997 35.3077 60.3585 35.3349C60.6675 35.4871 60.9323 35.6987 61.1904 35.9249C61.2234 35.9532 61.2563 35.9816 61.2902 36.0108C61.8539 36.5321 62.2172 37.2933 62.4464 38.0133C62.4973 38.1731 62.5515 38.3269 62.6228 38.4787C62.7179 38.6811 62.7894 38.8895 62.8621 39.1007C62.9423 39.3335 63.0252 39.5599 63.1312 39.7825C63.2267 39.9832 63.2997 40.1872 63.3675 40.3985C63.4343 40.6069 63.5058 40.8081 63.6007 41.0056C63.7148 41.2452 63.7997 41.4904 63.8848 41.7412C64.2714 42.93 64.2714 42.93 65.1524 43.7694C65.5153 43.9427 65.8648 43.9837 66.2626 43.9793C66.3381 43.9793 66.3381 43.9793 66.4151 43.9793C66.5237 43.9793 66.6322 43.979 66.7408 43.9784C66.9136 43.9775 67.0863 43.9776 67.259 43.9781C67.75 43.9791 68.2409 43.9786 68.7319 43.9768C69.0331 43.9757 69.3342 43.9761 69.6354 43.9773C69.7492 43.9774 69.863 43.9771 69.9768 43.9762C71.2075 43.9663 72.2146 44.2268 73.1522 45.0636C73.1919 45.0989 73.2317 45.1342 73.2727 45.1705C73.9055 45.7654 74.3625 46.5744 74.4054 47.4529C74.4105 47.6856 74.4102 47.9182 74.4101 48.151C74.4104 48.2404 74.4107 48.3298 74.411 48.4192C74.4119 48.6609 74.4121 48.9026 74.4122 49.1443C74.4122 49.2955 74.4124 49.4466 74.4127 49.5978C74.4136 50.1257 74.414 50.6536 74.4139 51.1815C74.4138 51.6729 74.4149 52.1643 74.4164 52.6557C74.4176 53.0783 74.4181 53.501 74.4181 53.9236C74.418 54.1758 74.4183 54.4279 74.4193 54.68C74.4203 54.917 74.4203 55.154 74.4196 55.391C74.4195 55.4778 74.4197 55.5645 74.4203 55.6513C74.4254 56.4794 74.4254 56.4794 74.2048 56.8339C74.1852 56.8745 74.1657 56.915 74.1455 56.9567C73.8118 57.5769 73.3256 57.9672 72.6501 58.1722C72.2373 58.2792 71.8034 58.2505 71.3805 58.2449C71.2807 58.2444 71.1809 58.2441 71.0811 58.2438C70.8208 58.2429 70.5605 58.2406 70.3003 58.2379C70.0337 58.2355 69.7671 58.2344 69.5006 58.2332C68.9793 58.2306 68.4581 58.2266 67.9368 58.2215C67.9436 58.1465 67.9506 58.0715 67.9576 57.9965C67.9615 57.9547 67.9654 57.9129 67.9693 57.8699C67.9839 57.7492 68.0067 57.6343 68.0346 57.5161C68.0991 57.2084 68.0967 56.9021 68.0953 56.5887C68.0951 56.5272 68.0949 56.4657 68.0947 56.4023C68.0894 55.9535 68.0518 55.5453 67.9368 55.1115C67.9177 55.0293 67.9177 55.0293 67.8982 54.9455C67.5719 53.6579 66.7331 52.5426 65.6389 51.7986C65.1428 51.5046 64.5938 51.2628 64.0373 51.1103C63.9964 51.0988 63.9554 51.0873 63.9132 51.0755C63.5114 50.9858 63.1137 50.9879 62.7036 50.9877C62.6431 50.9871 62.5827 50.9865 62.5204 50.9859C62.1754 50.9853 61.8602 51.0098 61.5254 51.0923C61.4785 51.1013 61.4316 51.1103 61.3833 51.1196C60.451 51.3239 59.6721 51.827 58.9895 52.4799C58.9358 52.5282 58.9358 52.5282 58.8811 52.5774C57.8683 53.5229 57.3113 55.0303 57.2552 56.3927C57.2431 56.9236 57.3139 57.422 57.4408 57.9374C57.4584 58.0301 57.4584 58.0301 57.4584 58.2215C52.4689 58.2373 47.4794 58.2531 42.3388 58.2694C42.173 58.6483 42.173 58.6483 42.0038 59.0349C41.2485 60.3123 40.1833 61.2245 38.7333 61.6083C37.7669 61.8534 36.7728 61.8613 35.8316 61.5229C35.7769 61.5051 35.7222 61.4873 35.6658 61.4689C34.4076 61.0312 33.3863 60.0429 32.7903 58.8674C32.7743 58.8359 32.7583 58.8045 32.7418 58.772C32.6525 58.5879 32.6075 58.4229 32.578 58.2215C32.5152 58.2219 32.4525 58.2224 32.3878 58.2228C31.7944 58.2267 31.2011 58.2295 30.6077 58.2314C30.3027 58.2324 29.9976 58.2338 29.6926 58.2359C29.3979 58.238 29.1032 58.2392 28.8085 58.2397C28.6964 58.24 28.5843 58.2407 28.4723 58.2417C27.504 58.2504 26.7671 58.1554 26.0364 57.4675C26.0004 57.4321 25.9644 57.3967 25.9273 57.3603C25.8866 57.3205 25.8866 57.3205 25.845 57.2799C25.2863 56.6825 25.2501 56.0482 25.251 55.2738C25.2509 55.2032 25.2508 55.1325 25.2507 55.0618C25.2504 54.8684 25.2504 54.675 25.2505 54.4816C25.2505 54.2727 25.2502 54.0638 25.25 53.8549C25.2496 53.4459 25.2494 53.037 25.2494 52.6281C25.2494 52.2957 25.2493 51.9632 25.2491 51.6308C25.2487 50.6879 25.2485 49.745 25.2485 48.802C25.2485 48.7513 25.2485 48.7005 25.2485 48.6481C25.2486 48.5973 25.2486 48.5464 25.2486 48.494C25.2486 47.6695 25.2481 46.845 25.2474 46.0205C25.2468 45.1734 25.2464 44.3264 25.2465 43.4793C25.2465 43.004 25.2464 42.5286 25.2458 42.0532C25.2454 41.6485 25.2453 41.2439 25.2456 40.8392C25.2458 40.6329 25.2458 40.4265 25.2454 40.2201C25.245 40.031 25.2451 39.8419 25.2455 39.6529C25.2455 39.5846 25.2455 39.5164 25.2452 39.4482C25.2438 39.075 25.2607 38.7274 25.3531 38.365C25.365 38.3165 25.3769 38.268 25.3892 38.218C25.6963 37.2253 26.3975 36.5095 27.267 35.9727C27.2939 35.9558 27.3208 35.9389 27.3484 35.9215C28.1106 35.4464 28.9045 35.2602 29.7844 35.1346C29.8527 35.1246 29.8527 35.1246 29.9225 35.1144C29.9595 35.1101 29.9965 35.1057 30.0346 35.1012C30.3583 34.9833 30.4796 34.642 30.6193 34.3549C31.2906 33.0258 32.3569 31.9348 33.7742 31.4272C34.393 31.2302 35.0126 31.2287 35.6556 31.2288Z" fill="#00A74D"/>
<path d="M52.1829 36.635C52.2389 36.6346 52.2948 36.6342 52.3525 36.6337C52.4138 36.6335 52.4751 36.6333 52.5382 36.6331C52.6035 36.6328 52.6689 36.6324 52.7342 36.6319C52.9487 36.6307 53.1633 36.63 53.3778 36.6293C53.4519 36.629 53.526 36.6288 53.6001 36.6285C53.9087 36.6275 54.2173 36.6266 54.526 36.626C54.9667 36.6253 55.4075 36.6237 55.8482 36.6209C56.1589 36.6191 56.4696 36.6182 56.7802 36.6179C56.9653 36.6177 57.1504 36.6172 57.3355 36.6156C57.5102 36.6141 57.6848 36.6139 57.8595 36.6144C57.9529 36.6144 58.0463 36.6133 58.1397 36.6121C58.9159 36.6174 59.5811 36.907 60.1472 37.4378C60.5596 37.8712 60.804 38.3774 61.0095 38.9328C61.0494 39.0405 61.0904 39.1477 61.1316 39.2549C61.2319 39.5161 61.331 39.7778 61.4301 40.0395C61.486 40.1871 61.542 40.3347 61.598 40.4823C61.6546 40.6315 61.7111 40.7808 61.7677 40.93C61.873 41.2078 61.9785 41.4856 62.0846 41.7631C62.1032 41.8117 62.1217 41.8602 62.1409 41.9103C62.1951 42.0477 62.2529 42.183 62.3123 42.3182C62.4178 42.5669 62.4972 42.8196 62.5754 43.0778C62.8534 43.9817 63.3337 44.7109 64.1697 45.1888C64.8331 45.5224 65.4816 45.6459 66.2167 45.6428C66.3119 45.6429 66.4071 45.6429 66.5023 45.6429C66.5521 45.6429 66.602 45.6428 66.6534 45.6427C66.9205 45.6425 67.1875 45.6438 67.4546 45.6448C67.7931 45.6459 68.1316 45.6467 68.4701 45.6459C68.7448 45.6454 69.0196 45.6462 69.2943 45.648C69.3982 45.6484 69.5022 45.6483 69.6061 45.6477C70.4522 45.6429 71.2167 45.7403 71.8607 46.3553C71.912 46.4206 71.9622 46.4868 72.0115 46.5536C72.0499 46.6054 72.0499 46.6054 72.0891 46.6582C72.1085 46.6846 72.1278 46.7109 72.1478 46.7381C72.0899 46.7387 72.0319 46.7394 71.9723 46.7402C71.7566 46.7429 71.541 46.7466 71.3254 46.7506C71.2322 46.7522 71.1391 46.7535 71.0459 46.7546C70.9116 46.7562 70.7774 46.7587 70.6432 46.7614C70.5811 46.7619 70.5811 46.7619 70.5177 46.7623C70.2767 46.7682 70.1078 46.7963 69.899 46.9294C69.6988 47.1459 69.6539 47.3004 69.6528 47.5904C69.6525 47.6475 69.6522 47.7047 69.6519 47.7637C69.6518 47.8256 69.6518 47.8875 69.6517 47.9512C69.6516 48.0155 69.6514 48.0799 69.6512 48.1442C69.651 48.2791 69.6509 48.4141 69.6509 48.549C69.6509 48.7211 69.6502 48.8932 69.6494 49.0652C69.6489 49.1982 69.6488 49.3312 69.6488 49.4641C69.6487 49.5581 69.6482 49.6522 69.6477 49.7462C69.6491 50.289 69.7305 50.7907 70.1074 51.2086C70.7215 51.7935 71.436 51.9478 72.2614 51.9803C72.3103 51.9823 72.3593 51.9844 72.4096 51.9865C72.5297 51.9916 72.6497 51.9965 72.7698 52.0012C72.7731 52.4812 72.7757 52.9612 72.7772 53.4412C72.778 53.6641 72.779 53.887 72.7806 54.1099C72.7822 54.3252 72.7831 54.5405 72.7834 54.7558C72.7837 54.8377 72.7842 54.9197 72.785 55.0016C72.786 55.1168 72.7862 55.232 72.7861 55.3472C72.7869 55.3975 72.7869 55.3975 72.7877 55.4488C72.7858 55.7558 72.7127 56.0104 72.5186 56.2476C72.1771 56.5271 71.9515 56.5742 71.517 56.5654C71.4665 56.5651 71.416 56.5648 71.364 56.5645C71.2036 56.5635 71.0432 56.5611 70.8828 56.5586C70.7737 56.5577 70.6646 56.5568 70.5555 56.556C70.2888 56.5539 70.0221 56.5507 69.7555 56.5467C69.7508 56.4868 69.7508 56.4868 69.7461 56.4257C69.661 55.3645 69.5333 54.3663 69.0856 53.3888C69.0713 53.3575 69.0571 53.3261 69.0424 53.2939C68.2467 51.5696 66.8487 50.2958 65.0759 49.6348C64.8514 49.5555 64.6252 49.4841 64.3966 49.4175C64.3632 49.4076 64.3297 49.3977 64.2953 49.3876C62.7144 48.9496 60.8144 49.3096 59.4066 50.0888C57.7176 51.0463 56.4745 52.6329 55.9434 54.4962C55.9222 54.5736 55.901 54.651 55.8799 54.7285C55.8638 54.782 55.8478 54.8354 55.8313 54.8905C55.6833 55.4336 55.6859 55.9809 55.6406 56.5467C53.6196 56.5467 51.5985 56.5467 49.5162 56.5467C49.512 54.3324 49.5085 52.1182 49.5064 49.904C49.5062 49.6424 49.506 49.3809 49.5057 49.1194C49.5056 49.0413 49.5056 49.0413 49.5055 48.9616C49.5047 48.119 49.5032 47.2765 49.5014 46.4339C49.4997 45.5691 49.4986 44.7043 49.4982 43.8395C49.4979 43.306 49.4971 42.7726 49.4956 42.2392C49.4945 41.8731 49.4942 41.5071 49.4945 41.1411C49.4946 40.9301 49.4944 40.719 49.4934 40.508C49.4925 40.3144 49.4924 40.1209 49.4931 39.9274C49.4932 39.8577 49.4929 39.788 49.4923 39.7183C49.4851 38.8382 49.7848 38.0628 50.3961 37.423C50.7817 37.0808 51.2205 36.8316 51.7172 36.6902C51.7454 36.6818 51.7736 36.6734 51.8026 36.6648C51.9314 36.6375 52.0511 36.6357 52.1829 36.635Z" fill="#FCFCFC"/>
<path d="M53.0051 37.8247C53.0612 37.8244 53.1172 37.8241 53.175 37.8237C53.3597 37.8228 53.5443 37.8226 53.729 37.8225C53.793 37.8224 53.8569 37.8222 53.9209 37.8221C54.256 37.8212 54.5911 37.8208 54.9262 37.8209C55.2371 37.8209 55.548 37.8199 55.859 37.8184C56.1271 37.8171 56.3952 37.8166 56.6633 37.8167C56.8229 37.8167 56.9825 37.8164 57.1422 37.8154C57.3205 37.8145 57.4989 37.8148 57.6773 37.8154C57.7551 37.8145 57.7551 37.8145 57.8346 37.8137C58.4659 37.8189 58.964 38.0362 59.4278 38.4587C60.0098 39.0597 60.2558 39.9814 60.5539 40.7423C60.5991 40.857 60.6444 40.9716 60.6897 41.0863C60.7334 41.1971 60.777 41.3079 60.8206 41.4187C60.8406 41.4694 60.8605 41.52 60.881 41.5722C60.991 41.8531 61.0972 42.135 61.199 42.4189C61.23 42.5038 61.2638 42.5877 61.2985 42.6711C61.4449 43.2566 61.2775 43.9249 60.995 44.4441C60.6069 45.0437 60.0766 45.4671 59.3727 45.6376C59.056 45.6967 58.7418 45.6929 58.4203 45.6932C58.3586 45.6934 58.297 45.6937 58.2334 45.6939C58.065 45.6945 57.8965 45.6949 57.728 45.6951C57.6225 45.6952 57.517 45.6954 57.4115 45.6956C57.0805 45.6963 56.7496 45.6967 56.4187 45.6969C56.0381 45.6971 55.6576 45.698 55.277 45.6994C54.9819 45.7004 54.6867 45.7009 54.3916 45.7009C54.2158 45.701 54.0399 45.7013 53.8641 45.7021C53.6676 45.7031 53.4712 45.7029 53.2747 45.7025C53.2173 45.703 53.16 45.7034 53.1009 45.7039C52.3784 45.7003 51.7785 45.5026 51.2447 45.0037C50.8403 44.5736 50.65 44.081 50.6507 43.4961C50.6503 43.4555 50.65 43.4149 50.6497 43.3731C50.6488 43.2397 50.6486 43.1062 50.6485 42.9728C50.6482 42.8793 50.6479 42.7858 50.6475 42.6923C50.6469 42.4964 50.6468 42.3005 50.6468 42.1047C50.6468 41.8552 50.6455 41.6057 50.6439 41.3562C50.6428 41.163 50.6426 40.9698 50.6427 40.7766C50.6426 40.6847 50.6421 40.5928 50.6414 40.5009C50.6355 39.6932 50.718 39.0454 51.3054 38.4378C51.8218 37.9508 52.3066 37.8241 53.0051 37.8247Z" fill="#00A74D"/>
<path d="M62.5771 52.0242C62.6738 52.0252 62.7703 52.0242 62.867 52.023C63.4572 52.0216 64.0216 52.1368 64.5458 52.4169C64.5774 52.4334 64.609 52.4499 64.6415 52.4669C65.5003 52.9257 66.1662 53.5467 66.645 54.3936C66.6801 54.4538 66.6801 54.4538 66.7159 54.5151C67.2834 55.5594 67.3713 56.8541 67.0476 57.9844C66.6809 59.2046 65.9291 60.2345 64.8059 60.864C63.7521 61.4217 62.5387 61.5288 61.3849 61.2297C60.1772 60.8279 59.2263 59.9625 58.652 58.8404C58.4474 58.4246 58.3008 58.0105 58.224 57.5515C58.2178 57.5148 58.2115 57.4781 58.2051 57.4403C58.189 57.3175 58.1816 57.1968 58.1761 57.0731C58.1746 57.0401 58.173 57.0071 58.1714 56.9731C58.1186 55.692 58.4905 54.5394 59.3484 53.5683C59.4198 53.4921 59.4915 53.4164 59.5637 53.341C59.5935 53.3081 59.6234 53.2752 59.6542 53.2414C60.4121 52.434 61.4787 52.0104 62.5771 52.0242Z" fill="#00A74D"/>
<path d="M53.1148 39.3623C53.1559 39.3619 53.197 39.3615 53.2394 39.361C53.2843 39.3608 53.3293 39.3606 53.3756 39.3604C53.4468 39.3598 53.4468 39.3598 53.5195 39.3592C53.6769 39.358 53.8342 39.3573 53.9916 39.3566C54.0454 39.3563 54.0992 39.3561 54.1545 39.3558C54.4392 39.3545 54.7238 39.3536 55.0084 39.3529C55.3021 39.3521 55.5958 39.35 55.8896 39.3475C56.1156 39.3459 56.3417 39.3454 56.5677 39.3451C56.676 39.3448 56.7842 39.344 56.8925 39.3429C57.0442 39.3414 57.1959 39.3414 57.3477 39.3417C57.4144 39.3406 57.4144 39.3406 57.4825 39.3394C57.8606 39.343 58.087 39.4754 58.3545 39.736C58.5055 39.9346 58.585 40.1669 58.6726 40.3984C58.7137 40.5045 58.7548 40.6106 58.7959 40.7167C58.8299 40.8049 58.8299 40.8049 58.8646 40.8949C58.9354 41.0773 59.0088 41.2585 59.0826 41.4397C59.1491 41.603 59.2151 41.7665 59.2811 41.9301C59.3138 42.011 59.3468 42.0918 59.38 42.1726C59.427 42.2872 59.4732 42.4022 59.5193 42.5173C59.5334 42.5513 59.5476 42.5853 59.5622 42.6203C59.6661 42.8837 59.7076 43.1285 59.626 43.4075C59.5206 43.6058 59.4258 43.7472 59.2288 43.8673C59.0942 43.9031 59.0942 43.9031 58.9896 43.9151C58.9896 43.9467 58.9896 43.9783 58.9896 44.0108C58.2039 44.0164 57.4182 44.0206 56.6326 44.0232C56.2677 44.0244 55.9029 44.0261 55.5381 44.0288C55.22 44.0312 54.9019 44.0328 54.5838 44.0333C54.4155 44.0336 54.2472 44.0343 54.0788 44.0361C53.8906 44.038 53.7025 44.0381 53.5143 44.038C53.4588 44.0388 53.4034 44.0397 53.3463 44.0406C52.9307 44.0379 52.6802 43.931 52.3886 43.6376C52.2084 43.3563 52.2579 42.9842 52.2609 42.6621C52.2609 42.5862 52.2608 42.5102 52.2606 42.4342C52.2604 42.2755 52.2611 42.1167 52.2624 41.9579C52.2641 41.755 52.2638 41.5522 52.2629 41.3493C52.2624 41.1926 52.2628 41.0359 52.2635 40.8792C52.2638 40.8044 52.2638 40.7296 52.2635 40.6548C52.2632 40.5501 52.2642 40.4454 52.2655 40.3406C52.2659 40.2514 52.2659 40.2514 52.2664 40.1605C52.3037 39.9046 52.4201 39.6807 52.6289 39.5192C52.7976 39.3971 52.912 39.3638 53.1148 39.3623Z" fill="#FBFBFB"/>
<path d="M39.1809 50.183C39.2334 50.198 39.2334 50.198 39.2869 50.2133C40.7663 50.6541 42.009 51.6612 42.7634 53.006C42.7884 53.0533 42.7884 53.0533 42.8139 53.1017C42.8658 53.2014 42.8658 53.2014 42.9358 53.3084C43.02 53.4566 43.0732 53.6042 43.1283 53.7655C43.1867 53.9361 43.2455 54.1012 43.3206 54.2651C43.4077 54.4817 43.4542 54.6937 43.4961 54.9228C43.5044 54.968 43.5128 55.0133 43.5214 55.0599C43.6055 55.5586 43.5959 56.0416 43.5828 56.5466C43.267 56.5466 42.9512 56.5466 42.6259 56.5466C42.621 56.4282 42.616 56.3098 42.6109 56.1878C42.5395 54.8322 42.0452 53.601 41.0948 52.6232C41.0501 52.5741 41.0501 52.5741 41.0045 52.5239C40.5198 52.0068 39.9177 51.7036 39.2766 51.427C39.232 51.4068 39.1874 51.3866 39.1415 51.3657C38.8607 51.2493 38.5736 51.1988 38.2748 51.1519C38.236 51.1458 38.1972 51.1396 38.1573 51.1333C37.6457 51.0609 37.1559 51.085 36.648 51.1728C36.5977 51.1815 36.5473 51.1902 36.4955 51.1991C36.125 51.2666 35.7885 51.3569 35.4489 51.5227C35.4022 51.5446 35.4022 51.5446 35.3546 51.567C34.8446 51.8086 34.4253 52.095 34.0134 52.4796C33.9824 52.5069 33.9513 52.5342 33.9192 52.5623C32.8062 53.5861 32.3678 55.0859 32.291 56.5466C31.9752 56.5466 31.6594 56.5466 31.334 56.5466C31.2914 54.7407 31.9363 53.119 33.1715 51.7904C33.3748 51.5873 33.5941 51.4101 33.8221 51.2356C33.8628 51.2032 33.9035 51.1707 33.9454 51.1373C35.4012 50.0171 37.4275 49.6811 39.1809 50.183Z" fill="#F7F7F8"/>
<path d="M35.6702 32.6618C35.7122 32.6619 35.7541 32.662 35.7973 32.6621C35.9523 32.6626 36.1073 32.664 36.2623 32.6652C36.7834 32.6682 36.7834 32.6682 37.315 32.6712C37.315 33.508 37.315 34.3449 37.315 35.2071C35.7676 35.2071 34.2202 35.2071 32.626 35.2071C32.7242 34.9125 32.8088 34.6778 32.9669 34.4206C32.9948 34.3745 32.9948 34.3745 33.0234 34.3275C33.1965 34.0503 33.4006 33.8122 33.6308 33.5803C33.6722 33.5369 33.7137 33.4934 33.7564 33.4487C33.7939 33.4132 33.8314 33.3777 33.87 33.3411C33.8926 33.3187 33.9153 33.2963 33.9386 33.2732C34.4291 32.8156 35.0169 32.6547 35.6702 32.6618Z" fill="#F9F9F9"/>
<path d="M51.6063 46.7298C51.653 46.7292 51.6996 46.7285 51.7477 46.7279C51.8236 46.7274 51.8236 46.7274 51.9011 46.7268C51.9532 46.7265 52.0052 46.7261 52.0589 46.7257C52.1693 46.725 52.2798 46.7245 52.3902 46.7241C52.5585 46.7233 52.7267 46.7212 52.8949 46.7191C53.0022 46.7186 53.1096 46.7182 53.2169 46.7179C53.267 46.717 53.317 46.7162 53.3686 46.7153C53.7384 46.7164 54.0076 46.7803 54.2737 47.0463C54.3536 47.1774 54.3821 47.2558 54.3963 47.4081C54.4066 47.4969 54.4066 47.4969 54.4172 47.5875C54.4128 47.8004 54.3283 47.9439 54.2187 48.1221C53.9172 48.3958 53.5286 48.4419 53.1369 48.4383C53.0918 48.4385 53.0466 48.4387 53.0001 48.4389C52.9055 48.439 52.8108 48.4386 52.7162 48.4378C52.5721 48.4368 52.4281 48.4378 52.2841 48.4391C52.1916 48.4389 52.099 48.4387 52.0065 48.4383C51.964 48.4387 51.9214 48.4391 51.8775 48.4395C51.5658 48.4348 51.2975 48.372 51.0679 48.1489C50.8529 47.8977 50.839 47.7304 50.8421 47.4074C50.8661 47.1525 50.9874 47.03 51.1726 46.8668C51.3317 46.7538 51.4136 46.732 51.6063 46.7298Z" fill="#00A74D"/>
<path d="M37.9778 55.2191C38.2964 55.4274 38.5335 55.7051 38.6546 56.0684C38.6923 56.488 38.6911 56.8347 38.4153 57.1689C38.1893 57.4059 37.9818 57.5787 37.6473 57.6156C37.254 57.6203 36.9927 57.5908 36.696 57.3253C36.4154 57.033 36.3082 56.7357 36.2861 56.3345C36.2974 55.9992 36.4163 55.7373 36.6403 55.489C37.0003 55.1546 37.5098 55.0143 37.9778 55.2191Z" fill="#FAFAFA"/>
<path d="M63.3439 55.5897C63.5967 55.8156 63.8029 56.0492 63.8351 56.3968C63.8336 56.6727 63.8212 56.9086 63.7267 57.1687C63.6951 57.1687 63.6635 57.1687 63.631 57.1687C63.6177 57.219 63.6177 57.219 63.6041 57.2704C63.4924 57.4936 63.3104 57.6414 63.0871 57.7501C62.7975 57.8434 62.4571 57.8414 62.1776 57.7159C61.8683 57.534 61.6472 57.2292 61.5468 56.8859C61.4791 56.5654 61.5128 56.2608 61.6693 55.9725C61.8555 55.696 62.0723 55.5309 62.384 55.4103C62.7438 55.3667 63.0283 55.402 63.3439 55.5897Z" fill="#F9F9F9"/>
<path d="M26.98 47.073C27.5484 47.073 28.1168 47.073 28.7025 47.073C28.7054 47.3414 28.7084 47.6098 28.7114 47.8864C28.7134 48.0123 28.7134 48.0123 28.7154 48.1408C28.7158 48.2085 28.7162 48.2762 28.7165 48.3439C28.7172 48.3781 28.718 48.4123 28.7187 48.4476C28.7189 48.7406 28.6621 49.0065 28.4696 49.2377C28.4379 49.2635 28.4062 49.2893 28.3735 49.3158C28.3263 49.3556 28.3263 49.3556 28.2782 49.3962C27.8548 49.6831 27.5616 49.561 26.98 49.561C26.98 48.74 26.98 47.9189 26.98 47.073Z" fill="#F7F7F7"/>
<path d="M70.8081 48.4128C71.4713 48.4128 72.1344 48.4128 72.8177 48.4128C72.8177 49.0128 72.8177 49.6128 72.8177 50.231C71.7922 50.231 71.7922 50.231 71.4286 49.9045C71.2375 49.6621 71.1058 49.4012 70.9786 49.1216C70.9616 49.0846 70.9446 49.0477 70.9272 49.0096C70.9038 48.9559 70.9038 48.9559 70.8801 48.9012C70.8592 48.8535 70.8592 48.8535 70.8379 48.8047C70.8081 48.6999 70.8081 48.6999 70.8081 48.4128Z" fill="#F9F9F9"/>
<path d="M27.0757 47.1687C27.5336 47.1687 27.9915 47.1687 28.4632 47.1687C28.4632 47.1845 28.4632 47.2003 28.4632 47.2165C28.4258 47.2177 28.3884 47.2189 28.3498 47.2202C28.1813 47.2257 28.0127 47.2316 27.8442 47.2375C27.7853 47.2394 27.7264 47.2412 27.6656 47.2432C27.5817 47.2462 27.5817 47.2462 27.496 47.2493C27.4182 47.2519 27.4182 47.2519 27.3389 47.2546C27.2221 47.2512 27.2221 47.2512 27.1714 47.3122C27.1655 47.3798 27.1629 47.4476 27.1616 47.5153C27.1606 47.5584 27.1596 47.6015 27.1587 47.6459C27.1579 47.6928 27.1571 47.7396 27.1562 47.7879C27.1552 47.8356 27.1542 47.8834 27.1532 47.9325C27.1501 48.0856 27.1473 48.2387 27.1445 48.3918C27.1424 48.4953 27.1403 48.5988 27.1382 48.7023C27.1331 48.9567 27.1282 49.211 27.1235 49.4654C27.1077 49.4654 27.092 49.4654 27.0757 49.4654C27.0757 48.7075 27.0757 47.9496 27.0757 47.1687Z" fill="#F3F3F3"/>
<path d="M58.1762 50.9009C58.2078 50.9167 58.2393 50.9325 58.2719 50.9487C58.2407 50.9788 58.2095 51.0089 58.1773 51.0399C57.9813 51.2319 57.7926 51.4173 57.6349 51.6425C57.5303 51.7903 57.4495 51.8627 57.2671 51.9057C57.5267 51.5274 57.8488 51.2195 58.1762 50.9009Z" fill="#00A74D"/>
<path d="M33.8701 60.2788C34.0474 60.3077 34.1505 60.3853 34.2888 60.4971C34.3461 60.5431 34.3461 60.5431 34.4047 60.59C34.448 60.6254 34.448 60.6254 34.4921 60.6616C34.4448 60.6932 34.3974 60.7247 34.3486 60.7573C34.2687 60.6867 34.189 60.6159 34.1094 60.545C34.0649 60.5055 34.0205 60.4661 33.9748 60.4255C33.9402 60.3929 33.9057 60.3603 33.8701 60.3267C33.8701 60.3109 33.8701 60.2951 33.8701 60.2788Z" fill="#00A74D"/>
<path d="M32.8174 54.0586C32.8489 54.0902 32.8805 54.1218 32.9131 54.1543C32.8894 54.1977 32.8657 54.2411 32.8413 54.2859C32.7561 54.4418 32.7561 54.4418 32.7695 54.6328C32.6748 54.6801 32.6748 54.6801 32.5781 54.7285C32.5998 54.6526 32.6218 54.5769 32.6439 54.5012C32.6561 54.459 32.6683 54.4168 32.6809 54.3733C32.7179 54.2614 32.7617 54.1622 32.8174 54.0586Z" fill="#00A74D"/>
<path d="M62.4824 55.3985C62.5436 55.3956 62.6048 55.3926 62.6678 55.3896C62.7194 55.3871 62.7194 55.3871 62.7721 55.3845C62.8028 55.3891 62.8335 55.3938 62.8652 55.3985C62.8968 55.4459 62.9283 55.4933 62.9609 55.5421C62.7714 55.5421 62.5819 55.5421 62.3867 55.5421C62.4183 55.5263 62.4499 55.5105 62.4824 55.4942C62.4824 55.4627 62.4824 55.4311 62.4824 55.3985Z" fill="#F1F1F1"/>
<path d="M33.2002 53.3889C33.2426 53.5077 33.255 53.5621 33.2091 53.682C33.1523 53.7717 33.1523 53.7717 33.0566 53.8674C33.0251 53.8674 32.9935 53.8674 32.9609 53.8674C33.0248 53.6954 33.1026 53.5442 33.2002 53.3889Z" fill="#00A74D"/>
<path d="M34.205 52.2405C34.2366 52.2563 34.2682 52.2721 34.3007 52.2883C34.1744 52.4304 34.0481 52.5725 33.918 52.7189C33.8864 52.6874 33.8548 52.6558 33.8223 52.6233C33.9486 52.4969 34.0749 52.3706 34.205 52.2405Z" fill="#00A74D"/>
<path d="M72.8174 44.8242C73.0925 44.9977 73.0925 44.9977 73.2002 45.1591C72.9901 45.1591 72.9241 45.0573 72.7695 44.9199C72.7853 44.8883 72.8011 44.8568 72.8174 44.8242Z" fill="#00A74D"/>
<path d="M34.9706 32.8147C34.7494 32.9141 34.5352 32.9918 34.3008 33.0539C34.4589 32.8587 34.7252 32.7067 34.9706 32.8147Z" fill="#BFC0C0"/>
<path d="M33.7744 52.6711C33.7744 52.8239 33.7631 52.8815 33.6787 53.0061C33.5531 53.0659 33.5531 53.0659 33.4395 53.1018C33.4863 53.0389 33.5331 52.9761 33.58 52.9134C33.6061 52.8784 33.6322 52.8434 33.6591 52.8074C33.7265 52.719 33.7265 52.719 33.7744 52.6711Z" fill="#00A74D"/>
<path d="M33.7265 33.4368C33.7581 33.4526 33.7897 33.4683 33.8222 33.4846C33.7385 33.6252 33.7385 33.6252 33.6308 33.7717C33.5677 33.7875 33.5045 33.8033 33.4395 33.8195C33.5342 33.6932 33.6289 33.5669 33.7265 33.4368Z" fill="#E5E5E6"/>
<path d="M32.5303 52.384C32.5618 52.4156 32.5934 52.4472 32.6259 52.4797C32.565 52.5773 32.501 52.673 32.4346 52.7668C32.403 52.7668 32.3714 52.7668 32.3389 52.7668C32.3927 52.6246 32.4452 52.5116 32.5303 52.384Z" fill="#00A74D"/>
<path d="M34.875 51.762C34.9066 51.7778 34.9381 51.7935 34.9707 51.8098C34.9075 51.8888 34.8443 51.9677 34.7793 52.049C34.7161 52.0175 34.653 51.9859 34.5879 51.9534C34.6826 51.8902 34.7774 51.827 34.875 51.762Z" fill="#00A74D"/>
<path d="M81.0752 21.2925C82.0888 22.2474 82.8908 23.2338 83.6344 24.4147C83.7385 24.579 83.8426 24.7433 83.9499 24.9125C86.8955 29.6443 86.8955 29.6443 86.7203 30.9556C86.6591 31.0998 86.5979 31.2441 86.5348 31.3928C86.3993 31.1155 86.2639 30.8382 86.1243 30.5525C84.11 26.4549 84.11 26.4549 81.6382 22.6233C81.0752 21.8384 81.0752 21.8384 81.0752 21.2925Z" fill="#00A74D"/>
<path d="M54.0503 6.00562C56.8697 6.11062 60.0095 6.52096 62.5127 7.91648C61.4377 8.2677 60.8283 8.00065 59.7797 7.61471C58.5016 7.23212 57.191 7.04605 55.873 6.84935C55.3534 6.76708 54.8377 6.66124 54.3233 6.55158C54.2332 6.37141 54.1431 6.19124 54.0503 6.00562Z" fill="#00A74D"/>
<path d="M88.446 36.0334C88.7163 36.1686 88.7163 36.1686 88.992 36.3064C89.7113 38.4644 89.9333 40.5973 89.8109 42.858C89.7209 42.858 89.6308 42.858 89.538 42.858C89.482 42.549 89.4261 42.24 89.3684 41.9217C89.2942 41.5172 89.2199 41.1127 89.1456 40.7082C89.1088 40.5045 89.072 40.3008 89.0341 40.0908C88.8431 38.9856 88.8431 38.9856 88.446 37.9443C88.4351 37.3075 88.4342 36.6703 88.446 36.0334Z" fill="#00A74D"/>
<path d="M50.501 118.201C50.501 118.471 50.501 118.741 50.501 119.02C49.7041 119.692 49.0297 119.901 48.01 119.941C46.9086 119.834 46.7967 119.798 46.1333 119.02C46.38 119.029 46.6266 119.039 46.8808 119.048C47.3638 119.06 47.3638 119.06 47.8565 119.071C48.1764 119.08 48.4962 119.09 48.8258 119.1C49.6801 119.098 49.6801 119.098 50.2056 118.607C50.3031 118.473 50.4006 118.339 50.501 118.201Z" fill="#00A74D"/>
<path d="M59.7827 7.09741C60.187 7.17419 60.5907 7.25447 60.9941 7.33627C61.3314 7.40278 61.3314 7.40278 61.6755 7.47063C61.8616 7.52763 62.0477 7.58464 62.2395 7.64337C62.3296 7.82354 62.4197 8.00371 62.5125 8.18933C60.3969 7.95048 60.3969 7.95048 59.7827 7.64337C59.7827 7.46321 59.7827 7.28304 59.7827 7.09741Z" fill="#00A74D"/>
<path d="M89.5379 52.6853C89.628 52.6853 89.7181 52.6853 89.8109 52.6853C90.1469 54.1636 90.1469 54.1636 89.828 54.9715C89.7322 55.1179 89.6365 55.2643 89.5379 55.4151C89.4478 55.4151 89.3577 55.4151 89.2649 55.4151C89.2308 53.6066 89.2308 53.6066 89.5379 52.6853Z" fill="#00A74D"/>
<path d="M21.5652 15.2869C21.5652 15.5571 21.5652 15.8274 21.5652 16.1058C20.9168 16.5835 20.9168 16.5835 20.2003 16.9247C20.0201 16.8347 19.8399 16.7446 19.6543 16.6518C20.951 15.2869 20.951 15.2869 21.5652 15.2869Z" fill="#00A74D"/>
</svg>
